%TF.GenerationSoftware,KiCad,Pcbnew,8.0.3*%
%TF.CreationDate,2024-10-09T15:46:38-03:00*%
%TF.ProjectId,mod_sensado_Prototipo_270624,6d6f645f-7365-46e7-9361-646f5f50726f,rev?*%
%TF.SameCoordinates,Original*%
%TF.FileFunction,Soldermask,Top*%
%TF.FilePolarity,Negative*%
%FSLAX46Y46*%
G04 Gerber Fmt 4.6, Leading zero omitted, Abs format (unit mm)*
G04 Created by KiCad (PCBNEW 8.0.3) date 2024-10-09 15:46:38*
%MOMM*%
%LPD*%
G01*
G04 APERTURE LIST*
G04 Aperture macros list*
%AMRoundRect*
0 Rectangle with rounded corners*
0 $1 Rounding radius*
0 $2 $3 $4 $5 $6 $7 $8 $9 X,Y pos of 4 corners*
0 Add a 4 corners polygon primitive as box body*
4,1,4,$2,$3,$4,$5,$6,$7,$8,$9,$2,$3,0*
0 Add four circle primitives for the rounded corners*
1,1,$1+$1,$2,$3*
1,1,$1+$1,$4,$5*
1,1,$1+$1,$6,$7*
1,1,$1+$1,$8,$9*
0 Add four rect primitives between the rounded corners*
20,1,$1+$1,$2,$3,$4,$5,0*
20,1,$1+$1,$4,$5,$6,$7,0*
20,1,$1+$1,$6,$7,$8,$9,0*
20,1,$1+$1,$8,$9,$2,$3,0*%
G04 Aperture macros list end*
%ADD10C,1.600000*%
%ADD11O,1.600000X1.600000*%
%ADD12R,1.905000X2.000000*%
%ADD13O,1.905000X2.000000*%
%ADD14R,1.500000X1.500000*%
%ADD15C,1.500000*%
%ADD16R,2.000000X2.000000*%
%ADD17O,2.000000X2.000000*%
%ADD18RoundRect,0.102000X-0.780000X0.780000X-0.780000X-0.780000X0.780000X-0.780000X0.780000X0.780000X0*%
%ADD19C,1.764000*%
%ADD20RoundRect,0.250000X-1.330000X-1.850000X1.330000X-1.850000X1.330000X1.850000X-1.330000X1.850000X0*%
%ADD21O,3.160000X4.200000*%
%ADD22RoundRect,0.250000X1.850000X-1.330000X1.850000X1.330000X-1.850000X1.330000X-1.850000X-1.330000X0*%
%ADD23O,4.200000X3.160000*%
%ADD24R,1.600000X1.600000*%
%ADD25R,3.000000X3.000000*%
%ADD26C,3.000000*%
%ADD27R,1.550000X1.550000*%
%ADD28C,1.550000*%
%ADD29C,2.400000*%
%ADD30O,2.400000X2.400000*%
%ADD31RoundRect,0.102000X0.865000X0.865000X-0.865000X0.865000X-0.865000X-0.865000X0.865000X-0.865000X0*%
%ADD32C,1.934000*%
%ADD33C,2.500000*%
%ADD34R,2.200000X2.200000*%
%ADD35O,2.200000X2.200000*%
%ADD36RoundRect,0.250000X-1.850000X1.330000X-1.850000X-1.330000X1.850000X-1.330000X1.850000X1.330000X0*%
%ADD37C,2.000000*%
%ADD38RoundRect,0.102000X0.605000X-0.605000X0.605000X0.605000X-0.605000X0.605000X-0.605000X-0.605000X0*%
%ADD39C,1.414000*%
%ADD40R,1.800000X1.800000*%
%ADD41C,1.800000*%
%ADD42R,2.700000X2.700000*%
%ADD43C,2.700000*%
%ADD44RoundRect,0.102000X0.649000X0.649000X-0.649000X0.649000X-0.649000X-0.649000X0.649000X-0.649000X0*%
%ADD45C,1.502000*%
%ADD46RoundRect,0.250000X1.330000X1.800000X-1.330000X1.800000X-1.330000X-1.800000X1.330000X-1.800000X0*%
%ADD47O,3.160000X4.100000*%
%ADD48RoundRect,0.250001X-1.099999X1.099999X-1.099999X-1.099999X1.099999X-1.099999X1.099999X1.099999X0*%
%ADD49R,1.700000X1.700000*%
%ADD50O,1.700000X1.700000*%
%ADD51RoundRect,0.102000X-0.649000X0.649000X-0.649000X-0.649000X0.649000X-0.649000X0.649000X0.649000X0*%
%ADD52C,1.804000*%
%ADD53RoundRect,0.250000X1.330000X1.850000X-1.330000X1.850000X-1.330000X-1.850000X1.330000X-1.850000X0*%
%ADD54R,1.300000X1.300000*%
%ADD55C,1.300000*%
%ADD56RoundRect,0.102000X0.605000X0.605000X-0.605000X0.605000X-0.605000X-0.605000X0.605000X-0.605000X0*%
%ADD57RoundRect,0.250000X1.800000X-1.330000X1.800000X1.330000X-1.800000X1.330000X-1.800000X-1.330000X0*%
%ADD58O,4.100000X3.160000*%
G04 APERTURE END LIST*
D10*
%TO.C,RC21*%
X204450000Y-86310000D03*
D11*
X204450000Y-101550000D03*
%TD*%
D12*
%TO.C,U2*%
X215430000Y-187050000D03*
D13*
X212890000Y-187050000D03*
X210350000Y-187050000D03*
%TD*%
D10*
%TO.C,CV10*%
X198090000Y-84590000D03*
X198090000Y-89590000D03*
%TD*%
D14*
%TO.C,Q3*%
X141600000Y-113480000D03*
D15*
X144140000Y-110940000D03*
X146680000Y-113480000D03*
%TD*%
D16*
%TO.C,D1*%
X181275000Y-161245000D03*
D17*
X181275000Y-156165000D03*
X176195000Y-156165000D03*
X176195000Y-161245000D03*
%TD*%
D14*
%TO.C,Q7*%
X67400000Y-85280000D03*
D15*
X69940000Y-82740000D03*
X72480000Y-85280000D03*
%TD*%
D18*
%TO.C,U1*%
X128630000Y-59970000D03*
D19*
X126090000Y-59970000D03*
X123550000Y-59970000D03*
X121010000Y-59970000D03*
X118470000Y-59970000D03*
X115930000Y-59970000D03*
X113390000Y-59970000D03*
X110850000Y-59970000D03*
X108310000Y-59970000D03*
X105770000Y-59970000D03*
X103230000Y-59970000D03*
X100690000Y-59970000D03*
X98150000Y-59970000D03*
X95610000Y-59970000D03*
X93070000Y-59970000D03*
X90530000Y-59970000D03*
X87990000Y-59970000D03*
X85450000Y-59970000D03*
X82910000Y-59970000D03*
X128630000Y-85370000D03*
X126090000Y-85370000D03*
X123550000Y-85370000D03*
X121010000Y-85370000D03*
X118470000Y-85370000D03*
X115930000Y-85370000D03*
X113390000Y-85370000D03*
X110850000Y-85370000D03*
X108310000Y-85370000D03*
X105770000Y-85370000D03*
X103230000Y-85370000D03*
X100690000Y-85370000D03*
X98150000Y-85370000D03*
X95610000Y-85370000D03*
X93070000Y-85370000D03*
X90530000Y-85370000D03*
X87990000Y-85370000D03*
X85450000Y-85370000D03*
X82910000Y-85370000D03*
%TD*%
D20*
%TO.C,J13*%
X210905000Y-155965000D03*
D21*
X214865000Y-155965000D03*
X218825000Y-155965000D03*
%TD*%
D22*
%TO.C,J17*%
X22900000Y-98110000D03*
D23*
X22900000Y-94150000D03*
X22900000Y-90190000D03*
%TD*%
D10*
%TO.C,RV16*%
X209340000Y-112610000D03*
D11*
X209340000Y-127850000D03*
%TD*%
D24*
%TO.C,C18*%
X151480000Y-177360000D03*
D10*
X148980000Y-177360000D03*
%TD*%
D25*
%TO.C,J8*%
X145827500Y-64522500D03*
D26*
X145827500Y-59522500D03*
X145827500Y-54522500D03*
%TD*%
D27*
%TO.C,RC16*%
X230380000Y-55200000D03*
D28*
X227880000Y-57700000D03*
X230380000Y-60200000D03*
%TD*%
D10*
%TO.C,F2*%
X163450000Y-58490000D03*
D11*
X163450000Y-50870000D03*
%TD*%
D24*
%TO.C,C19*%
X203660000Y-159720000D03*
D10*
X203660000Y-157220000D03*
%TD*%
D29*
%TO.C,RV1*%
X58285000Y-25610000D03*
D30*
X88765000Y-25610000D03*
%TD*%
D10*
%TO.C,P11*%
X71630000Y-140370000D03*
D11*
X71630000Y-132750000D03*
%TD*%
D10*
%TO.C,F10*%
X116970000Y-99540000D03*
D11*
X116970000Y-107160000D03*
%TD*%
D10*
%TO.C,RV18*%
X99530000Y-104700000D03*
D11*
X99530000Y-119940000D03*
%TD*%
D10*
%TO.C,F5*%
X214990000Y-69800000D03*
D11*
X214990000Y-62180000D03*
%TD*%
D31*
%TO.C,PS1*%
X229370000Y-87440000D03*
D32*
X226830000Y-87440000D03*
X221750000Y-87440000D03*
X219210000Y-87440000D03*
X216670000Y-87440000D03*
%TD*%
D26*
%TO.C,K1*%
X42390000Y-56820000D03*
D33*
X36340000Y-58770000D03*
D26*
X36340000Y-70970000D03*
X48390000Y-71020000D03*
D33*
X48340000Y-58770000D03*
%TD*%
D10*
%TO.C,F8*%
X124310000Y-97880000D03*
D11*
X124310000Y-90260000D03*
%TD*%
D10*
%TO.C,P7*%
X90510000Y-99170000D03*
D11*
X90510000Y-91550000D03*
%TD*%
D34*
%TO.C,D5*%
X36290000Y-78900000D03*
D35*
X46450000Y-78900000D03*
%TD*%
D10*
%TO.C,P1*%
X167710000Y-48830000D03*
D11*
X175330000Y-48830000D03*
%TD*%
D10*
%TO.C,RE2*%
X128620000Y-119610000D03*
D11*
X143860000Y-119610000D03*
%TD*%
D10*
%TO.C,RC1*%
X54810000Y-75470000D03*
D11*
X70050000Y-75470000D03*
%TD*%
D24*
%TO.C,U9*%
X55535000Y-94660000D03*
D11*
X58075000Y-94660000D03*
X58075000Y-87040000D03*
X55535000Y-87040000D03*
%TD*%
D24*
%TO.C,U4*%
X55595000Y-67180000D03*
D11*
X58135000Y-67180000D03*
X58135000Y-59560000D03*
X55595000Y-59560000D03*
%TD*%
D27*
%TO.C,RC22*%
X174530000Y-103280000D03*
D28*
X177030000Y-100780000D03*
X174530000Y-98280000D03*
%TD*%
D10*
%TO.C,P24*%
X137900000Y-68860000D03*
D11*
X137900000Y-61240000D03*
%TD*%
D10*
%TO.C,P14*%
X73490000Y-79130000D03*
D11*
X73490000Y-71510000D03*
%TD*%
D10*
%TO.C,F9*%
X121000000Y-97860000D03*
D11*
X121000000Y-90240000D03*
%TD*%
D10*
%TO.C,F6*%
X223920000Y-93370000D03*
D11*
X231540000Y-93370000D03*
%TD*%
D10*
%TO.C,RV15*%
X177100000Y-71180000D03*
D11*
X161860000Y-71180000D03*
%TD*%
D12*
%TO.C,U8*%
X152990000Y-189530000D03*
D13*
X150450000Y-189530000D03*
X147910000Y-189530000D03*
%TD*%
D20*
%TO.C,J16*%
X130610000Y-156060000D03*
D21*
X134570000Y-156060000D03*
X138530000Y-156060000D03*
%TD*%
D25*
%TO.C,J5*%
X207730000Y-23280000D03*
D26*
X202730000Y-23280000D03*
X197730000Y-23280000D03*
X192730000Y-23280000D03*
%TD*%
D36*
%TO.C,J12*%
X233970000Y-109390000D03*
D23*
X233970000Y-113350000D03*
X233970000Y-117310000D03*
%TD*%
D10*
%TO.C,RV10*%
X142340000Y-46280000D03*
D11*
X142340000Y-31040000D03*
%TD*%
D10*
%TO.C,P17*%
X126850000Y-153280000D03*
D11*
X126850000Y-145660000D03*
%TD*%
D24*
%TO.C,C1*%
X165550000Y-170910000D03*
D10*
X163050000Y-170910000D03*
%TD*%
%TO.C,CV5*%
X162190000Y-89990000D03*
X157190000Y-89990000D03*
%TD*%
%TO.C,P12*%
X157050000Y-189480000D03*
D11*
X164670000Y-189480000D03*
%TD*%
D27*
%TO.C,RV4*%
X158810000Y-40150000D03*
D28*
X156310000Y-42650000D03*
X158810000Y-45150000D03*
%TD*%
D14*
%TO.C,Q5*%
X69290000Y-62400000D03*
D15*
X71830000Y-59860000D03*
X74370000Y-62400000D03*
%TD*%
D10*
%TO.C,P5*%
X73500000Y-96720000D03*
D11*
X73500000Y-89100000D03*
%TD*%
D10*
%TO.C,RV17*%
X193050000Y-111102651D03*
D11*
X193050000Y-126342651D03*
%TD*%
D37*
%TO.C,L2*%
X40090000Y-25570000D03*
D17*
X52790000Y-25570000D03*
%TD*%
D38*
%TO.C,UV1*%
X169080000Y-32107500D03*
D39*
X171620000Y-32107500D03*
X174160000Y-32107500D03*
X176700000Y-32107500D03*
X176700000Y-24167500D03*
X174160000Y-24167500D03*
X171620000Y-24167500D03*
X169080000Y-24167500D03*
%TD*%
D10*
%TO.C,CV4*%
X165110000Y-35040000D03*
X165110000Y-40040000D03*
%TD*%
D27*
%TO.C,RV14*%
X147880000Y-81810000D03*
D28*
X145380000Y-84310000D03*
X147880000Y-86810000D03*
%TD*%
D10*
%TO.C,RV8*%
X128320000Y-46390000D03*
D11*
X128320000Y-31150000D03*
%TD*%
D10*
%TO.C,RE3*%
X160280000Y-135190000D03*
D11*
X160280000Y-119950000D03*
%TD*%
D10*
%TO.C,P3*%
X181880000Y-32980000D03*
D11*
X181880000Y-25360000D03*
%TD*%
D10*
%TO.C,RC3*%
X54780000Y-128190000D03*
D11*
X70020000Y-128190000D03*
%TD*%
D10*
%TO.C,P26*%
X139140000Y-103370000D03*
D11*
X139140000Y-95750000D03*
%TD*%
D10*
%TO.C,CV6*%
X166842500Y-78140000D03*
X161842500Y-78140000D03*
%TD*%
%TO.C,P23*%
X214950000Y-177450000D03*
D11*
X214950000Y-169830000D03*
%TD*%
D10*
%TO.C,P6*%
X82140000Y-112210000D03*
D11*
X82140000Y-119830000D03*
%TD*%
D24*
%TO.C,C21*%
X225190000Y-176320000D03*
D10*
X227690000Y-176320000D03*
%TD*%
D24*
%TO.C,C17*%
X145330000Y-164770000D03*
D10*
X142830000Y-164770000D03*
%TD*%
%TO.C,P8*%
X51910000Y-84540000D03*
D11*
X51910000Y-76920000D03*
%TD*%
D12*
%TO.C,U3*%
X229880000Y-187265000D03*
D13*
X227340000Y-187265000D03*
X224800000Y-187265000D03*
%TD*%
D10*
%TO.C,RC17*%
X203570000Y-34690000D03*
D11*
X203570000Y-49930000D03*
%TD*%
D24*
%TO.C,C20*%
X203700000Y-175970000D03*
D10*
X206200000Y-175970000D03*
%TD*%
%TO.C,F7*%
X180110000Y-75080000D03*
D11*
X187730000Y-75080000D03*
%TD*%
D10*
%TO.C,P20*%
X165000000Y-122740000D03*
D11*
X172620000Y-122740000D03*
%TD*%
D10*
%TO.C,RC19*%
X207540000Y-54290000D03*
D11*
X222780000Y-54290000D03*
%TD*%
D40*
%TO.C,D6*%
X216530000Y-113020000D03*
D41*
X213990000Y-113020000D03*
%TD*%
D10*
%TO.C,P4*%
X76580000Y-118410000D03*
D11*
X76580000Y-110790000D03*
%TD*%
D10*
%TO.C,F4*%
X214950000Y-37350000D03*
D11*
X222570000Y-37350000D03*
%TD*%
D10*
%TO.C,CV8*%
X221550000Y-128220000D03*
X221550000Y-123220000D03*
%TD*%
D42*
%TO.C,J11*%
X128970000Y-130190000D03*
D43*
X123970000Y-130190000D03*
X118970000Y-130190000D03*
X113970000Y-130190000D03*
X108970000Y-130190000D03*
X103970000Y-130190000D03*
%TD*%
D10*
%TO.C,F11*%
X112270000Y-99390000D03*
D11*
X112270000Y-107010000D03*
%TD*%
D10*
%TO.C,P18*%
X171730000Y-160750000D03*
D11*
X171730000Y-153130000D03*
%TD*%
D10*
%TO.C,CV3*%
X120280000Y-36050000D03*
X120280000Y-41050000D03*
%TD*%
%TO.C,P25*%
X137850000Y-89500000D03*
D11*
X137850000Y-81880000D03*
%TD*%
D12*
%TO.C,U7*%
X143610000Y-154150000D03*
D13*
X146150000Y-154150000D03*
X148690000Y-154150000D03*
%TD*%
D25*
%TO.C,J9*%
X79570000Y-130580000D03*
D26*
X84570000Y-130580000D03*
X89570000Y-130580000D03*
X94570000Y-130580000D03*
%TD*%
D10*
%TO.C,C14*%
X138560000Y-174000000D03*
X138560000Y-169000000D03*
%TD*%
D25*
%TO.C,J2*%
X154160000Y-130680000D03*
D26*
X149160000Y-130680000D03*
X144160000Y-130680000D03*
X139160000Y-130680000D03*
%TD*%
%TO.C,K2*%
X42660000Y-122970000D03*
D33*
X48710000Y-121020000D03*
D26*
X48710000Y-108820000D03*
X36660000Y-108770000D03*
D33*
X36710000Y-121020000D03*
%TD*%
D10*
%TO.C,P2*%
X154700000Y-75390000D03*
D11*
X154700000Y-67770000D03*
%TD*%
D44*
%TO.C,UC5*%
X211510000Y-76480000D03*
D45*
X211510000Y-73940000D03*
X211510000Y-71400000D03*
X211510000Y-68860000D03*
X201350000Y-68860000D03*
X201350000Y-71400000D03*
X201350000Y-73940000D03*
X201350000Y-76480000D03*
%TD*%
D10*
%TO.C,RV19*%
X107090000Y-104900000D03*
D11*
X107090000Y-120140000D03*
%TD*%
D10*
%TO.C,P10*%
X70450000Y-113910000D03*
D11*
X70450000Y-106290000D03*
%TD*%
D46*
%TO.C,J15*%
X122670000Y-154970000D03*
D47*
X118710000Y-154970000D03*
X114750000Y-154970000D03*
X110790000Y-154970000D03*
%TD*%
D10*
%TO.C,C16*%
X138870000Y-181580000D03*
X138870000Y-186580000D03*
%TD*%
D24*
%TO.C,C13*%
X128640000Y-171820000D03*
D10*
X128640000Y-169320000D03*
%TD*%
%TO.C,CV1*%
X98230000Y-30890000D03*
X98230000Y-35890000D03*
%TD*%
%TO.C,RC20*%
X219270000Y-73790000D03*
D11*
X219270000Y-58550000D03*
%TD*%
D48*
%TO.C,J6*%
X25200000Y-63460000D03*
D43*
X25200000Y-67420000D03*
X25200000Y-71380000D03*
X25200000Y-75340000D03*
X25200000Y-79300000D03*
X25200000Y-83260000D03*
%TD*%
D49*
%TO.C,J20*%
X128590000Y-82490000D03*
D50*
X126050000Y-82490000D03*
X123510000Y-82490000D03*
X120970000Y-82490000D03*
X118430000Y-82490000D03*
X115890000Y-82490000D03*
X113350000Y-82490000D03*
X110810000Y-82490000D03*
X108270000Y-82490000D03*
X105730000Y-82490000D03*
X103190000Y-82490000D03*
X100650000Y-82490000D03*
X98110000Y-82490000D03*
X95570000Y-82490000D03*
X93030000Y-82490000D03*
X90490000Y-82490000D03*
X87950000Y-82490000D03*
X85410000Y-82490000D03*
X82870000Y-82490000D03*
%TD*%
D10*
%TO.C,P19*%
X135060000Y-164240000D03*
D11*
X135060000Y-171860000D03*
%TD*%
D10*
%TO.C,RE4*%
X147440000Y-106950000D03*
D11*
X162680000Y-106950000D03*
%TD*%
D10*
%TO.C,Cc12*%
X131080000Y-92470000D03*
X131080000Y-97470000D03*
%TD*%
D51*
%TO.C,UV2*%
X177350000Y-54300000D03*
D45*
X174810000Y-54300000D03*
X172270000Y-54300000D03*
X169730000Y-54300000D03*
X169730000Y-64460000D03*
X172270000Y-64460000D03*
X174810000Y-64460000D03*
X177350000Y-64460000D03*
%TD*%
D10*
%TO.C,P22*%
X154640000Y-64440000D03*
D11*
X154640000Y-56820000D03*
%TD*%
D52*
%TO.C,RV3*%
X109980000Y-27940000D03*
X105480000Y-37940000D03*
%TD*%
D53*
%TO.C,J3*%
X179960000Y-187490000D03*
D21*
X176000000Y-187490000D03*
X172040000Y-187490000D03*
%TD*%
D10*
%TO.C,CV2*%
X149010000Y-36170000D03*
X149010000Y-41170000D03*
%TD*%
D31*
%TO.C,PS2*%
X229670000Y-102180000D03*
D32*
X227130000Y-102180000D03*
X222050000Y-102180000D03*
X219510000Y-102180000D03*
X216970000Y-102180000D03*
%TD*%
D53*
%TO.C,J4*%
X195070000Y-187295000D03*
D21*
X191110000Y-187295000D03*
X187150000Y-187295000D03*
%TD*%
D34*
%TO.C,D4*%
X47160000Y-128080000D03*
D35*
X37000000Y-128080000D03*
%TD*%
D10*
%TO.C,RV9*%
X135590000Y-46340000D03*
D11*
X135590000Y-31100000D03*
%TD*%
D24*
%TO.C,C15*%
X128300000Y-181490000D03*
D10*
X128300000Y-183990000D03*
%TD*%
D14*
%TO.C,Q2*%
X224780000Y-66750000D03*
D15*
X227320000Y-64210000D03*
X229860000Y-66750000D03*
%TD*%
D36*
%TO.C,J18*%
X233535000Y-158225000D03*
D23*
X233535000Y-162185000D03*
X233535000Y-166145000D03*
%TD*%
D49*
%TO.C,J10*%
X120700000Y-54060000D03*
D50*
X118160000Y-54060000D03*
X115620000Y-54060000D03*
X113080000Y-54060000D03*
X110540000Y-54060000D03*
X108000000Y-54060000D03*
X105460000Y-54060000D03*
X102920000Y-54060000D03*
X100380000Y-54060000D03*
X97840000Y-54060000D03*
%TD*%
D10*
%TO.C,P9*%
X53620000Y-111910000D03*
D11*
X53620000Y-104290000D03*
%TD*%
D24*
%TO.C,U6*%
X54735000Y-122450000D03*
D11*
X57275000Y-122450000D03*
X57275000Y-114830000D03*
X54735000Y-114830000D03*
%TD*%
D27*
%TO.C,RC18*%
X223820000Y-50520000D03*
D28*
X226320000Y-48020000D03*
X223820000Y-45520000D03*
%TD*%
D26*
%TO.C,K3*%
X41600000Y-83510000D03*
D33*
X35550000Y-85460000D03*
D26*
X35550000Y-97660000D03*
X47600000Y-97710000D03*
D33*
X47550000Y-85460000D03*
%TD*%
D10*
%TO.C,P16*%
X78250000Y-83840000D03*
D11*
X78250000Y-76220000D03*
%TD*%
D10*
%TO.C,CV9*%
X215190000Y-128090000D03*
X215190000Y-123090000D03*
%TD*%
D54*
%TO.C,VR1*%
X202540000Y-114392651D03*
D55*
X201270000Y-115662651D03*
X200000000Y-114392651D03*
%TD*%
D14*
%TO.C,Q4*%
X161420000Y-113620000D03*
D15*
X163960000Y-111080000D03*
X166500000Y-113620000D03*
%TD*%
D36*
%TO.C,J19*%
X24810000Y-47830000D03*
D23*
X24810000Y-51790000D03*
X24810000Y-55750000D03*
%TD*%
D10*
%TO.C,RV12*%
X190760000Y-57430000D03*
D11*
X190760000Y-42190000D03*
%TD*%
D10*
%TO.C,RC6*%
X63670000Y-96250000D03*
D11*
X63670000Y-81010000D03*
%TD*%
D10*
%TO.C,RC4*%
X63430000Y-123400000D03*
D11*
X63430000Y-108160000D03*
%TD*%
D42*
%TO.C,J7*%
X22810000Y-130270000D03*
D43*
X22810000Y-125270000D03*
X22810000Y-120270000D03*
X22810000Y-115270000D03*
X22810000Y-110270000D03*
X22810000Y-105270000D03*
%TD*%
D10*
%TO.C,Cc8*%
X210210000Y-33850000D03*
X215210000Y-33850000D03*
%TD*%
%TO.C,RV13*%
X167382500Y-84090000D03*
D11*
X152142500Y-84090000D03*
%TD*%
D34*
%TO.C,D3*%
X37120000Y-51650000D03*
D35*
X47280000Y-51650000D03*
%TD*%
D10*
%TO.C,P15*%
X110660000Y-113660000D03*
D11*
X125900000Y-113660000D03*
%TD*%
D56*
%TO.C,UV3*%
X190910000Y-87290000D03*
D39*
X190910000Y-84750000D03*
X190910000Y-82210000D03*
X190910000Y-79670000D03*
X182970000Y-79670000D03*
X182970000Y-82210000D03*
X182970000Y-84750000D03*
X182970000Y-87290000D03*
%TD*%
D10*
%TO.C,RE1*%
X127780000Y-106720000D03*
D11*
X143020000Y-106720000D03*
%TD*%
D10*
%TO.C,P21*%
X193870000Y-98560000D03*
D11*
X193870000Y-90940000D03*
%TD*%
D56*
%TO.C,UC4*%
X218327500Y-48400000D03*
D39*
X218327500Y-45860000D03*
X218327500Y-43320000D03*
X218327500Y-40780000D03*
X210387500Y-40780000D03*
X210387500Y-43320000D03*
X210387500Y-45860000D03*
X210387500Y-48400000D03*
%TD*%
D27*
%TO.C,RV6*%
X178410000Y-42190000D03*
D28*
X175910000Y-39690000D03*
X173410000Y-42190000D03*
%TD*%
D29*
%TO.C,RV11*%
X58565000Y-41190000D03*
D30*
X89045000Y-41190000D03*
%TD*%
D14*
%TO.C,Q1*%
X154940000Y-50790000D03*
D15*
X157480000Y-48250000D03*
X160020000Y-50790000D03*
%TD*%
D27*
%TO.C,RV2*%
X120220000Y-26200000D03*
D28*
X117720000Y-28700000D03*
X120220000Y-31200000D03*
%TD*%
D10*
%TO.C,Cc9*%
X232650000Y-50660000D03*
X232650000Y-45660000D03*
%TD*%
%TO.C,RV23*%
X166930000Y-98300000D03*
D11*
X151690000Y-98300000D03*
%TD*%
D14*
%TO.C,Q6*%
X68890000Y-121010000D03*
D15*
X71430000Y-118470000D03*
X73970000Y-121010000D03*
%TD*%
D10*
%TO.C,P13*%
X154330000Y-156570000D03*
D11*
X154330000Y-148950000D03*
%TD*%
D10*
%TO.C,F13*%
X99800000Y-101320000D03*
D11*
X99800000Y-93700000D03*
%TD*%
D10*
%TO.C,RC2*%
X63730000Y-70570000D03*
D11*
X63730000Y-55330000D03*
%TD*%
D57*
%TO.C,J14*%
X232230000Y-37740000D03*
D58*
X232230000Y-33780000D03*
X232230000Y-29820000D03*
X232230000Y-25860000D03*
%TD*%
D10*
%TO.C,RV5*%
X143550000Y-24060000D03*
D11*
X158790000Y-24060000D03*
%TD*%
D10*
%TO.C,RC5*%
X54990000Y-100410000D03*
D11*
X70230000Y-100410000D03*
%TD*%
D16*
%TO.C,D2*%
X194625000Y-161585000D03*
D17*
X194625000Y-156505000D03*
X189545000Y-156505000D03*
X189545000Y-161585000D03*
%TD*%
D37*
%TO.C,L4*%
X39080000Y-41060000D03*
D17*
X51780000Y-41060000D03*
%TD*%
D24*
%TO.C,C2*%
X201460000Y-127092651D03*
D10*
X201460000Y-124592651D03*
%TD*%
%TO.C,F12*%
X107180000Y-101460000D03*
D11*
X107180000Y-93840000D03*
%TD*%
D22*
%TO.C,J1*%
X30440000Y-35770000D03*
D23*
X30440000Y-31810000D03*
X30440000Y-27850000D03*
%TD*%
D10*
%TO.C,CV7*%
X189140000Y-91330000D03*
X184140000Y-91330000D03*
%TD*%
%TO.C,RV7*%
X186130000Y-27050000D03*
D11*
X186130000Y-42290000D03*
%TD*%
D12*
%TO.C,U5*%
X159980000Y-153880000D03*
D13*
X162520000Y-153880000D03*
X165060000Y-153880000D03*
%TD*%
M02*
