  0
SECTION
  2
HEADER
  9
$ANGBASE
  50
0.0
  9
$ANGDIR
  70
1
  9
$MEASUREMENT
  70
1
  0
ENDSEC
  0
SECTION
  2
TABLES
  0
TABLE
  2
LTYPE
  70
4
  0
LTYPE
  5
40F
  2
CONTINUOUS
  70
0
  3
Solid line
  72
65
  73
0
  40
0.0
  0
LTYPE
  5
410
  2
DASHDOT
 70
0
  3
Dash Dot ____ _ ____ _
 72
65
 73
4
 40
2.0
 49
1.25
 49
-0.25
 49
0.25
 49
-0.25
  0
LTYPE
  5
411
  2
DASHED
 70
0
  3
Dashed __ __ __ __ __
 72
65
 73
2
 40
0.75
 49
0.5
 49
-0.25
  0
LTYPE
  5
43B
  2
DOTTED
 70
0
  3
Dotted .  .  .  .
 72
65
 73
2
 40
0.2
 49
0.0
 49
-0.2
  0
ENDTAB
  0
TABLE
  2
STYLE
  70
4
  0
STYLE
  2
KICAD
  70
0
  40
0
  41
1
  42
1
  50
0
  71
0
  3
isocp.shx
  0
STYLE
  2
KICADB
  70
0
  40
0
  41
1
  42
1
  50
0
  71
0
  3
isocp.shx
  0
STYLE
  2
KICADI
  70
0
  40
0
  41
1
  42
1
  50
15
  71
0
  3
isocp.shx
  0
STYLE
  2
KICADBI
  70
0
  40
0
  41
1
  42
1
  50
15
  71
0
  3
isocp.shx
  0
ENDTAB
  0
TABLE
  2
LAYER
  70
1
  0
LAYER
  2
BLACK
  70
0
  62
7
  6
CONTINUOUS
  0
ENDTAB
  0
ENDSEC
  0
SECTION
  2
ENTITIES
0
LINE
8
BLACK
6
CONTINUOUS
10
11.9799999999999986
20
-12.375
11
244.7699999999999818
21
-12.375
0
LINE
8
BLACK
6
CONTINUOUS
10
244.7699999999999818
20
-12.375
11
244.7699999999999818
21
-197.4650000000000034
0
LINE
8
BLACK
6
CONTINUOUS
10
244.7699999999999818
20
-197.4650000000000034
11
11.9799999999999986
21
-197.4650000000000034
0
LINE
8
BLACK
6
CONTINUOUS
10
11.9799999999999986
20
-197.4650000000000034
11
11.9799999999999986
21
-12.375
0
LINE
8
BLACK
6
CONTINUOUS
10
14.5627680000000002
20
-200.6048380000000009
11
14.5627680000000002
21
-198.6048380000000009
0
LINE
8
BLACK
6
CONTINUOUS
10
14.5627680000000002
20
-198.6048380000000009
11
15.0389579999999992
21
-198.6048380000000009
0
LINE
8
BLACK
6
CONTINUOUS
10
15.0389579999999992
20
-198.6048380000000009
11
15.3246729999999989
21
-198.7000759999999957
0
LINE
8
BLACK
6
CONTINUOUS
10
15.3246729999999989
20
-198.7000759999999957
11
15.5151489999999992
21
-198.8905519999999854
0
LINE
8
BLACK
6
CONTINUOUS
10
15.5151489999999992
20
-198.8905519999999854
11
15.6103869999999993
21
-199.0810280000000034
0
LINE
8
BLACK
6
CONTINUOUS
10
15.6103869999999993
20
-199.0810280000000034
11
15.7056249999999995
21
-199.4619799999999827
0
LINE
8
BLACK
6
CONTINUOUS
10
15.7056249999999995
20
-199.4619799999999827
11
15.7056249999999995
21
-199.7476949999999931
0
LINE
8
BLACK
6
CONTINUOUS
10
15.7056249999999995
20
-199.7476949999999931
11
15.6103869999999993
21
-200.1286470000000008
0
LINE
8
BLACK
6
CONTINUOUS
10
15.6103869999999993
20
-200.1286470000000008
11
15.5151489999999992
21
-200.3191229999999905
0
LINE
8
BLACK
6
CONTINUOUS
10
15.5151489999999992
20
-200.3191229999999905
11
15.3246729999999989
21
-200.5095999999999776
0
LINE
8
BLACK
6
CONTINUOUS
10
15.3246729999999989
20
-200.5095999999999776
11
15.0389579999999992
21
-200.6048380000000009
0
LINE
8
BLACK
6
CONTINUOUS
10
15.0389579999999992
20
-200.6048380000000009
11
14.5627680000000002
21
-200.6048380000000009
0
LINE
8
BLACK
6
CONTINUOUS
10
16.5627679999999984
20
-200.6048380000000009
11
16.5627679999999984
21
-199.2715039999999931
0
LINE
8
BLACK
6
CONTINUOUS
10
16.5627679999999984
20
-199.6524569999999983
11
16.6580060000000003
21
-199.4619799999999827
0
LINE
8
BLACK
6
CONTINUOUS
10
16.6580060000000003
20
-199.4619799999999827
11
16.7532439999999987
21
-199.3667419999999879
0
LINE
8
BLACK
6
CONTINUOUS
10
16.7532439999999987
20
-199.3667419999999879
11
16.943719999999999
21
-199.2715039999999931
0
LINE
8
BLACK
6
CONTINUOUS
10
16.943719999999999
20
-199.2715039999999931
11
17.1341970000000003
21
-199.2715039999999931
0
LINE
8
BLACK
6
CONTINUOUS
10
17.8008629999999997
20
-200.6048380000000009
11
17.8008629999999997
21
-199.2715039999999931
0
LINE
8
BLACK
6
CONTINUOUS
10
17.8008629999999997
20
-198.6048380000000009
11
17.7056249999999977
21
-198.7000759999999957
0
LINE
8
BLACK
6
CONTINUOUS
10
17.7056249999999977
20
-198.7000759999999957
11
17.8008629999999997
21
-198.7953139999999905
0
LINE
8
BLACK
6
CONTINUOUS
10
17.8008629999999997
20
-198.7953139999999905
11
17.896100999999998
21
-198.7000759999999957
0
LINE
8
BLACK
6
CONTINUOUS
10
17.896100999999998
20
-198.7000759999999957
11
17.8008629999999997
21
-198.6048380000000009
0
LINE
8
BLACK
6
CONTINUOUS
10
17.8008629999999997
20
-198.6048380000000009
11
17.8008629999999997
21
-198.7953139999999905
0
LINE
8
BLACK
6
CONTINUOUS
10
19.0389579999999974
20
-200.6048380000000009
11
18.8484820000000006
21
-200.5095999999999776
0
LINE
8
BLACK
6
CONTINUOUS
10
18.8484820000000006
20
-200.5095999999999776
11
18.7532439999999987
21
-200.3191229999999905
0
LINE
8
BLACK
6
CONTINUOUS
10
18.7532439999999987
20
-200.3191229999999905
11
18.7532439999999987
21
-198.6048380000000009
0
LINE
8
BLACK
6
CONTINUOUS
10
20.0865769999999983
20
-200.6048380000000009
11
19.896100999999998
21
-200.5095999999999776
0
LINE
8
BLACK
6
CONTINUOUS
10
19.896100999999998
20
-200.5095999999999776
11
19.8008629999999997
21
-200.3191229999999905
0
LINE
8
BLACK
6
CONTINUOUS
10
19.8008629999999997
20
-200.3191229999999905
11
19.8008629999999997
21
-198.6048380000000009
0
LINE
8
BLACK
6
CONTINUOUS
10
22.3722919999999981
20
-200.6048380000000009
11
22.3722919999999981
21
-198.6048380000000009
0
LINE
8
BLACK
6
CONTINUOUS
10
22.3722919999999981
20
-198.6048380000000009
11
23.0389589999999984
21
-200.0334089999999776
0
LINE
8
BLACK
6
CONTINUOUS
10
23.0389589999999984
20
-200.0334089999999776
11
23.7056249999999977
21
-198.6048380000000009
0
LINE
8
BLACK
6
CONTINUOUS
10
23.7056249999999977
20
-198.6048380000000009
11
23.7056249999999977
21
-200.6048380000000009
0
LINE
8
BLACK
6
CONTINUOUS
10
25.5151489999999974
20
-200.6048380000000009
11
25.5151489999999974
21
-199.5572190000000035
0
LINE
8
BLACK
6
CONTINUOUS
10
25.5151489999999974
20
-199.5572190000000035
11
25.419910999999999
21
-199.3667419999999879
0
LINE
8
BLACK
6
CONTINUOUS
10
25.419910999999999
20
-199.3667419999999879
11
25.2294349999999987
21
-199.2715039999999931
0
LINE
8
BLACK
6
CONTINUOUS
10
25.2294349999999987
20
-199.2715039999999931
11
24.8484820000000006
21
-199.2715039999999931
0
LINE
8
BLACK
6
CONTINUOUS
10
24.8484820000000006
20
-199.2715039999999931
11
24.6580060000000003
21
-199.3667419999999879
0
LINE
8
BLACK
6
CONTINUOUS
10
25.5151489999999974
20
-200.5095999999999776
11
25.3246729999999971
21
-200.6048380000000009
0
LINE
8
BLACK
6
CONTINUOUS
10
25.3246729999999971
20
-200.6048380000000009
11
24.8484820000000006
21
-200.6048380000000009
0
LINE
8
BLACK
6
CONTINUOUS
10
24.8484820000000006
20
-200.6048380000000009
11
24.6580060000000003
21
-200.5095999999999776
0
LINE
8
BLACK
6
CONTINUOUS
10
24.6580060000000003
20
-200.5095999999999776
11
24.5627679999999984
21
-200.3191229999999905
0
LINE
8
BLACK
6
CONTINUOUS
10
24.5627679999999984
20
-200.3191229999999905
11
24.5627679999999984
21
-200.1286470000000008
0
LINE
8
BLACK
6
CONTINUOUS
10
24.5627679999999984
20
-200.1286470000000008
11
24.6580060000000003
21
-199.9381709999999828
0
LINE
8
BLACK
6
CONTINUOUS
10
24.6580060000000003
20
-199.9381709999999828
11
24.8484820000000006
21
-199.8429329999999879
0
LINE
8
BLACK
6
CONTINUOUS
10
24.8484820000000006
20
-199.8429329999999879
11
25.3246729999999971
21
-199.8429329999999879
0
LINE
8
BLACK
6
CONTINUOUS
10
25.3246729999999971
20
-199.8429329999999879
11
25.5151489999999974
21
-199.7476949999999931
0
LINE
8
BLACK
6
CONTINUOUS
10
26.46753
20
-199.2715039999999931
11
26.46753
21
-201.2715039999999931
0
LINE
8
BLACK
6
CONTINUOUS
10
26.46753
20
-199.3667419999999879
11
26.6580060000000003
21
-199.2715039999999931
0
LINE
8
BLACK
6
CONTINUOUS
10
26.6580060000000003
20
-199.2715039999999931
11
27.0389589999999984
21
-199.2715039999999931
0
LINE
8
BLACK
6
CONTINUOUS
10
27.0389589999999984
20
-199.2715039999999931
11
27.2294349999999987
21
-199.3667419999999879
0
LINE
8
BLACK
6
CONTINUOUS
10
27.2294349999999987
20
-199.3667419999999879
11
27.3246729999999971
21
-199.4619799999999827
0
LINE
8
BLACK
6
CONTINUOUS
10
27.3246729999999971
20
-199.4619799999999827
11
27.419910999999999
21
-199.6524569999999983
0
LINE
8
BLACK
6
CONTINUOUS
10
27.419910999999999
20
-199.6524569999999983
11
27.419910999999999
21
-200.2238849999999957
0
LINE
8
BLACK
6
CONTINUOUS
10
27.419910999999999
20
-200.2238849999999957
11
27.3246729999999971
21
-200.4143609999999853
0
LINE
8
BLACK
6
CONTINUOUS
10
27.3246729999999971
20
-200.4143609999999853
11
27.2294349999999987
21
-200.5095999999999776
0
LINE
8
BLACK
6
CONTINUOUS
10
27.2294349999999987
20
-200.5095999999999776
11
27.0389589999999984
21
-200.6048380000000009
0
LINE
8
BLACK
6
CONTINUOUS
10
27.0389589999999984
20
-200.6048380000000009
11
26.6580060000000003
21
-200.6048380000000009
0
LINE
8
BLACK
6
CONTINUOUS
10
26.6580060000000003
20
-200.6048380000000009
11
26.46753
21
-200.5095999999999776
0
LINE
8
BLACK
6
CONTINUOUS
10
28.2770539999999997
20
-200.4143609999999853
11
28.3722919999999981
21
-200.5095999999999776
0
LINE
8
BLACK
6
CONTINUOUS
10
28.3722919999999981
20
-200.5095999999999776
11
28.2770539999999997
21
-200.6048380000000009
0
LINE
8
BLACK
6
CONTINUOUS
10
28.2770539999999997
20
-200.6048380000000009
11
28.1818159999999978
21
-200.5095999999999776
0
LINE
8
BLACK
6
CONTINUOUS
10
28.1818159999999978
20
-200.5095999999999776
11
28.2770539999999997
21
-200.4143609999999853
0
LINE
8
BLACK
6
CONTINUOUS
10
28.2770539999999997
20
-200.4143609999999853
11
28.2770539999999997
21
-200.6048380000000009
0
LINE
8
BLACK
6
CONTINUOUS
10
28.2770539999999997
20
-199.3667419999999879
11
28.3722919999999981
21
-199.4619799999999827
0
LINE
8
BLACK
6
CONTINUOUS
10
28.3722919999999981
20
-199.4619799999999827
11
28.2770539999999997
21
-199.5572190000000035
0
LINE
8
BLACK
6
CONTINUOUS
10
28.2770539999999997
20
-199.5572190000000035
11
28.1818159999999978
21
-199.4619799999999827
0
LINE
8
BLACK
6
CONTINUOUS
10
28.1818159999999978
20
-199.4619799999999827
11
28.2770539999999997
21
-199.3667419999999879
0
LINE
8
BLACK
6
CONTINUOUS
10
28.2770539999999997
20
-199.3667419999999879
11
28.2770539999999997
21
-199.5572190000000035
  0
ENDSEC
  0
EOF
