%TF.GenerationSoftware,KiCad,Pcbnew,8.0.3*%
%TF.CreationDate,2024-10-09T15:46:37-03:00*%
%TF.ProjectId,mod_sensado_Prototipo_270624,6d6f645f-7365-46e7-9361-646f5f50726f,rev?*%
%TF.SameCoordinates,Original*%
%TF.FileFunction,Copper,L2,Bot*%
%TF.FilePolarity,Positive*%
%FSLAX46Y46*%
G04 Gerber Fmt 4.6, Leading zero omitted, Abs format (unit mm)*
G04 Created by KiCad (PCBNEW 8.0.3) date 2024-10-09 15:46:37*
%MOMM*%
%LPD*%
G01*
G04 APERTURE LIST*
G04 Aperture macros list*
%AMRoundRect*
0 Rectangle with rounded corners*
0 $1 Rounding radius*
0 $2 $3 $4 $5 $6 $7 $8 $9 X,Y pos of 4 corners*
0 Add a 4 corners polygon primitive as box body*
4,1,4,$2,$3,$4,$5,$6,$7,$8,$9,$2,$3,0*
0 Add four circle primitives for the rounded corners*
1,1,$1+$1,$2,$3*
1,1,$1+$1,$4,$5*
1,1,$1+$1,$6,$7*
1,1,$1+$1,$8,$9*
0 Add four rect primitives between the rounded corners*
20,1,$1+$1,$2,$3,$4,$5,0*
20,1,$1+$1,$4,$5,$6,$7,0*
20,1,$1+$1,$6,$7,$8,$9,0*
20,1,$1+$1,$8,$9,$2,$3,0*%
G04 Aperture macros list end*
%TA.AperFunction,ComponentPad*%
%ADD10C,1.600000*%
%TD*%
%TA.AperFunction,ComponentPad*%
%ADD11O,1.600000X1.600000*%
%TD*%
%TA.AperFunction,ComponentPad*%
%ADD12R,1.905000X2.000000*%
%TD*%
%TA.AperFunction,ComponentPad*%
%ADD13O,1.905000X2.000000*%
%TD*%
%TA.AperFunction,ComponentPad*%
%ADD14R,1.500000X1.500000*%
%TD*%
%TA.AperFunction,ComponentPad*%
%ADD15C,1.500000*%
%TD*%
%TA.AperFunction,ComponentPad*%
%ADD16R,2.000000X2.000000*%
%TD*%
%TA.AperFunction,ComponentPad*%
%ADD17O,2.000000X2.000000*%
%TD*%
%TA.AperFunction,ComponentPad*%
%ADD18R,1.560000X1.560000*%
%TD*%
%TA.AperFunction,ComponentPad*%
%ADD19C,1.560000*%
%TD*%
%TA.AperFunction,ComponentPad*%
%ADD20RoundRect,0.250000X-1.330000X-1.850000X1.330000X-1.850000X1.330000X1.850000X-1.330000X1.850000X0*%
%TD*%
%TA.AperFunction,ComponentPad*%
%ADD21O,3.160000X4.200000*%
%TD*%
%TA.AperFunction,ComponentPad*%
%ADD22RoundRect,0.250000X1.850000X-1.330000X1.850000X1.330000X-1.850000X1.330000X-1.850000X-1.330000X0*%
%TD*%
%TA.AperFunction,ComponentPad*%
%ADD23O,4.200000X3.160000*%
%TD*%
%TA.AperFunction,ComponentPad*%
%ADD24R,1.600000X1.600000*%
%TD*%
%TA.AperFunction,ComponentPad*%
%ADD25R,3.000000X3.000000*%
%TD*%
%TA.AperFunction,ComponentPad*%
%ADD26C,3.000000*%
%TD*%
%TA.AperFunction,ComponentPad*%
%ADD27R,1.550000X1.550000*%
%TD*%
%TA.AperFunction,ComponentPad*%
%ADD28C,1.550000*%
%TD*%
%TA.AperFunction,ComponentPad*%
%ADD29C,2.400000*%
%TD*%
%TA.AperFunction,ComponentPad*%
%ADD30O,2.400000X2.400000*%
%TD*%
%TA.AperFunction,ComponentPad*%
%ADD31R,1.730000X1.730000*%
%TD*%
%TA.AperFunction,ComponentPad*%
%ADD32C,1.730000*%
%TD*%
%TA.AperFunction,ComponentPad*%
%ADD33C,2.500000*%
%TD*%
%TA.AperFunction,ComponentPad*%
%ADD34R,2.200000X2.200000*%
%TD*%
%TA.AperFunction,ComponentPad*%
%ADD35O,2.200000X2.200000*%
%TD*%
%TA.AperFunction,ComponentPad*%
%ADD36RoundRect,0.250000X-1.850000X1.330000X-1.850000X-1.330000X1.850000X-1.330000X1.850000X1.330000X0*%
%TD*%
%TA.AperFunction,ComponentPad*%
%ADD37C,2.000000*%
%TD*%
%TA.AperFunction,ComponentPad*%
%ADD38R,1.210000X1.210000*%
%TD*%
%TA.AperFunction,ComponentPad*%
%ADD39C,1.210000*%
%TD*%
%TA.AperFunction,ComponentPad*%
%ADD40R,1.800000X1.800000*%
%TD*%
%TA.AperFunction,ComponentPad*%
%ADD41C,1.800000*%
%TD*%
%TA.AperFunction,ComponentPad*%
%ADD42R,2.700000X2.700000*%
%TD*%
%TA.AperFunction,ComponentPad*%
%ADD43C,2.700000*%
%TD*%
%TA.AperFunction,ComponentPad*%
%ADD44R,1.298000X1.298000*%
%TD*%
%TA.AperFunction,ComponentPad*%
%ADD45C,1.298000*%
%TD*%
%TA.AperFunction,ComponentPad*%
%ADD46RoundRect,0.250000X1.330000X1.800000X-1.330000X1.800000X-1.330000X-1.800000X1.330000X-1.800000X0*%
%TD*%
%TA.AperFunction,ComponentPad*%
%ADD47O,3.160000X4.100000*%
%TD*%
%TA.AperFunction,ComponentPad*%
%ADD48RoundRect,0.250001X-1.099999X1.099999X-1.099999X-1.099999X1.099999X-1.099999X1.099999X1.099999X0*%
%TD*%
%TA.AperFunction,ComponentPad*%
%ADD49R,1.700000X1.700000*%
%TD*%
%TA.AperFunction,ComponentPad*%
%ADD50O,1.700000X1.700000*%
%TD*%
%TA.AperFunction,ComponentPad*%
%ADD51RoundRect,0.250000X1.330000X1.850000X-1.330000X1.850000X-1.330000X-1.850000X1.330000X-1.850000X0*%
%TD*%
%TA.AperFunction,ComponentPad*%
%ADD52R,1.300000X1.300000*%
%TD*%
%TA.AperFunction,ComponentPad*%
%ADD53C,1.300000*%
%TD*%
%TA.AperFunction,ComponentPad*%
%ADD54RoundRect,0.250000X1.800000X-1.330000X1.800000X1.330000X-1.800000X1.330000X-1.800000X-1.330000X0*%
%TD*%
%TA.AperFunction,ComponentPad*%
%ADD55O,4.100000X3.160000*%
%TD*%
%TA.AperFunction,SMDPad,CuDef*%
%ADD56R,2.000000X2.500000*%
%TD*%
%TA.AperFunction,Conductor*%
%ADD57C,0.800000*%
%TD*%
%TA.AperFunction,Conductor*%
%ADD58C,1.200000*%
%TD*%
%TA.AperFunction,Conductor*%
%ADD59C,2.000000*%
%TD*%
%TA.AperFunction,Conductor*%
%ADD60C,1.000000*%
%TD*%
%TA.AperFunction,Conductor*%
%ADD61C,0.600000*%
%TD*%
%TA.AperFunction,Conductor*%
%ADD62C,1.500000*%
%TD*%
%TA.AperFunction,Conductor*%
%ADD63C,0.500000*%
%TD*%
%TA.AperFunction,Conductor*%
%ADD64C,0.700000*%
%TD*%
G04 APERTURE END LIST*
D10*
%TO.P,RC21,1*%
%TO.N,Net-(CV10-Pad1)*%
X204450000Y-86310000D03*
D11*
%TO.P,RC21,2*%
%TO.N,Net-(RC21-Pad2)*%
X204450000Y-101550000D03*
%TD*%
D12*
%TO.P,U2,1,VI*%
%TO.N,Net-(U2-VI)*%
X215430000Y-187050000D03*
D13*
%TO.P,U2,2,GND*%
%TO.N,GND4*%
X212890000Y-187050000D03*
%TO.P,U2,3,VO*%
%TO.N,+15VCC1*%
X210350000Y-187050000D03*
%TD*%
D10*
%TO.P,CV10,1*%
%TO.N,Net-(CV10-Pad1)*%
X198090000Y-84590000D03*
%TO.P,CV10,2*%
%TO.N,Net-(CV10-Pad2)*%
X198090000Y-89590000D03*
%TD*%
D14*
%TO.P,Q3,1,S*%
%TO.N,b*%
X141600000Y-113480000D03*
D15*
%TO.P,Q3,2,G*%
%TO.N,3V3*%
X144140000Y-110940000D03*
%TO.P,Q3,3,D*%
%TO.N,B*%
X146680000Y-113480000D03*
%TD*%
D16*
%TO.P,D1,1,+*%
%TO.N,Net-(D1-+)*%
X181275000Y-161245000D03*
D17*
%TO.P,D1,2*%
%TO.N,Net-(U8-VI)*%
X181275000Y-156165000D03*
%TO.P,D1,3,-*%
%TO.N,Net-(D1--)*%
X176195000Y-156165000D03*
%TO.P,D1,4*%
%TO.N,Net-(U7-VI)*%
X176195000Y-161245000D03*
%TD*%
D14*
%TO.P,Q7,1,C*%
%TO.N,Net-(D5-A)*%
X67400000Y-85280000D03*
D15*
%TO.P,Q7,2,B*%
%TO.N,Net-(Q7-B)*%
X69940000Y-82740000D03*
%TO.P,Q7,3,E*%
%TO.N,GND4*%
X72480000Y-85280000D03*
%TD*%
D18*
%TO.P,U1,J2-1,3V3*%
%TO.N,3V3*%
X128630000Y-59970000D03*
D19*
%TO.P,U1,J2-2,EN*%
%TO.N,unconnected-(U1-EN-PadJ2-2)*%
X126090000Y-59970000D03*
%TO.P,U1,J2-3,SENSOR_VP*%
%TO.N,1*%
X123550000Y-59970000D03*
%TO.P,U1,J2-4,SENSOR_VN*%
%TO.N,2*%
X121010000Y-59970000D03*
%TO.P,U1,J2-5,IO34*%
%TO.N,temp*%
X118470000Y-59970000D03*
%TO.P,U1,J2-6,IO35*%
%TO.N,VOLTAJE*%
X115930000Y-59970000D03*
%TO.P,U1,J2-7,IO32*%
%TO.N,3*%
X113390000Y-59970000D03*
%TO.P,U1,J2-8,IO33*%
%TO.N,4*%
X110850000Y-59970000D03*
%TO.P,U1,J2-9,IO25*%
%TO.N,a*%
X108310000Y-59970000D03*
%TO.P,U1,J2-10,IO26*%
%TO.N,b*%
X105770000Y-59970000D03*
%TO.P,U1,J2-11,IO27*%
%TO.N,5*%
X103230000Y-59970000D03*
%TO.P,U1,J2-12,IO14*%
%TO.N,6*%
X100690000Y-59970000D03*
%TO.P,U1,J2-13,IO12*%
%TO.N,7*%
X98150000Y-59970000D03*
%TO.P,U1,J2-14,GND1*%
%TO.N,GND2*%
X95610000Y-59970000D03*
%TO.P,U1,J2-15,IO13*%
%TO.N,8*%
X93070000Y-59970000D03*
%TO.P,U1,J2-16,SD2*%
%TO.N,unconnected-(U1-SD2-PadJ2-16)*%
X90530000Y-59970000D03*
%TO.P,U1,J2-17,SD3*%
%TO.N,unconnected-(U1-SD3-PadJ2-17)*%
X87990000Y-59970000D03*
%TO.P,U1,J2-18,CMD*%
%TO.N,GND2*%
X85450000Y-59970000D03*
%TO.P,U1,J2-19,EXT_5V*%
%TO.N,5V(uc)*%
X82910000Y-59970000D03*
%TO.P,U1,J3-1,GND3*%
%TO.N,GND2*%
X128630000Y-85370000D03*
%TO.P,U1,J3-2,IO23*%
%TO.N,Net-(J20-Pin_2)*%
X126090000Y-85370000D03*
%TO.P,U1,J3-3,IO22*%
%TO.N,SCL*%
X123550000Y-85370000D03*
%TO.P,U1,J3-4,TXD0*%
%TO.N,TX*%
X121010000Y-85370000D03*
%TO.P,U1,J3-5,RXD0*%
%TO.N,RX*%
X118470000Y-85370000D03*
%TO.P,U1,J3-6,IO21*%
%TO.N,SDA*%
X115930000Y-85370000D03*
%TO.P,U1,J3-7,GND2*%
%TO.N,GND2*%
X113390000Y-85370000D03*
%TO.P,U1,J3-8,IO19*%
%TO.N,Net-(J20-Pin_8)*%
X110850000Y-85370000D03*
%TO.P,U1,J3-9,IO18*%
%TO.N,Net-(J20-Pin_9)*%
X108310000Y-85370000D03*
%TO.P,U1,J3-10,IO5*%
%TO.N,Net-(J20-Pin_10)*%
X105770000Y-85370000D03*
%TO.P,U1,J3-11,IO17*%
%TO.N,TX2*%
X103230000Y-85370000D03*
%TO.P,U1,J3-12,IO16*%
%TO.N,RX2*%
X100690000Y-85370000D03*
%TO.P,U1,J3-13,IO4*%
%TO.N,IO4*%
X98150000Y-85370000D03*
%TO.P,U1,J3-14,IO0*%
%TO.N,gas_heater*%
X95610000Y-85370000D03*
%TO.P,U1,J3-15,IO2*%
%TO.N,IO2*%
X93070000Y-85370000D03*
%TO.P,U1,J3-16,IO15*%
%TO.N,CORRIENTE*%
X90530000Y-85370000D03*
%TO.P,U1,J3-17,SD1*%
%TO.N,Net-(J20-Pin_17)*%
X87990000Y-85370000D03*
%TO.P,U1,J3-18,SD0*%
%TO.N,Net-(J20-Pin_18)*%
X85450000Y-85370000D03*
%TO.P,U1,J3-19,CLK*%
%TO.N,Net-(J20-Pin_19)*%
X82910000Y-85370000D03*
%TD*%
D20*
%TO.P,J13,1,Pin_1*%
%TO.N,GND4*%
X210905000Y-155965000D03*
D21*
%TO.P,J13,2,Pin_2*%
%TO.N,unconnected-(J13-Pin_2-Pad2)*%
X214865000Y-155965000D03*
%TO.P,J13,3,Pin_3*%
%TO.N,Net-(J12-Pin_3)*%
X218825000Y-155965000D03*
%TD*%
D22*
%TO.P,J17,1,Pin_1*%
%TO.N,VCC2*%
X22900000Y-98110000D03*
D23*
%TO.P,J17,2,Pin_2*%
%TO.N,GND3*%
X22900000Y-94150000D03*
%TO.P,J17,3,Pin_3*%
X22900000Y-90190000D03*
%TD*%
D10*
%TO.P,RV16,1*%
%TO.N,Net-(D6-A)*%
X209340000Y-112610000D03*
D11*
%TO.P,RV16,2*%
%TO.N,VCC1*%
X209340000Y-127850000D03*
%TD*%
D24*
%TO.P,C18,1*%
%TO.N,GND3*%
X151480000Y-177360000D03*
D10*
%TO.P,C18,2*%
%TO.N,-15VCC*%
X148980000Y-177360000D03*
%TD*%
D25*
%TO.P,J8,1,Pin_1*%
%TO.N,5V(uc)*%
X145827500Y-64522500D03*
D26*
%TO.P,J8,2,Pin_2*%
%TO.N,temp*%
X145827500Y-59522500D03*
%TO.P,J8,3,Pin_3*%
%TO.N,GND2*%
X145827500Y-54522500D03*
%TD*%
D27*
%TO.P,RC16,1,1*%
%TO.N,Net-(Cc9-Pad1)*%
X230380000Y-55200000D03*
D28*
%TO.P,RC16,2,2*%
X227880000Y-57700000D03*
%TO.P,RC16,3,3*%
%TO.N,Net-(Q2-B)*%
X230380000Y-60200000D03*
%TD*%
D10*
%TO.P,F2,1*%
%TO.N,Net-(Q1-E)*%
X163450000Y-58490000D03*
D11*
%TO.P,F2,2*%
X163450000Y-50870000D03*
%TD*%
D24*
%TO.P,C19,1*%
%TO.N,Net-(U2-VI)*%
X203660000Y-159720000D03*
D10*
%TO.P,C19,2*%
%TO.N,GND4*%
X203660000Y-157220000D03*
%TD*%
D29*
%TO.P,RV1,1*%
%TO.N,Net-(L1-Pad2)*%
X58285000Y-25610000D03*
D30*
%TO.P,RV1,2*%
%TO.N,Net-(CV1-Pad1)*%
X88765000Y-25610000D03*
%TD*%
D10*
%TO.P,P11,1*%
%TO.N,GND2*%
X71630000Y-140370000D03*
D11*
%TO.P,P11,2*%
X71630000Y-132750000D03*
%TD*%
D10*
%TO.P,F10,1*%
%TO.N,TX2*%
X116970000Y-99540000D03*
D11*
%TO.P,F10,2*%
X116970000Y-107160000D03*
%TD*%
D10*
%TO.P,RV18,1*%
%TO.N,SDA*%
X99530000Y-104700000D03*
D11*
%TO.P,RV18,2*%
%TO.N,5V(uc)*%
X99530000Y-119940000D03*
%TD*%
D10*
%TO.P,F5,1*%
%TO.N,Net-(Cc9-Pad2)*%
X214990000Y-69800000D03*
D11*
%TO.P,F5,2*%
X214990000Y-62180000D03*
%TD*%
D31*
%TO.P,PS1,1,+VIN*%
%TO.N,Net-(J12-Pin_3)*%
X229370000Y-87440000D03*
D32*
%TO.P,PS1,2,-VIN*%
%TO.N,GND4*%
X226830000Y-87440000D03*
%TO.P,PS1,4,NC*%
%TO.N,unconnected-(PS1-NC-Pad4)*%
X221750000Y-87440000D03*
%TO.P,PS1,5,-VOUT*%
%TO.N,GND2*%
X219210000Y-87440000D03*
%TO.P,PS1,6,+VOUT*%
%TO.N,5V(uc)*%
X216670000Y-87440000D03*
%TD*%
D26*
%TO.P,K1,1*%
%TO.N,C1*%
X42390000Y-56820000D03*
D33*
%TO.P,K1,2*%
%TO.N,+15VCC1*%
X36340000Y-58770000D03*
D26*
%TO.P,K1,3*%
%TO.N,NA1*%
X36340000Y-70970000D03*
%TO.P,K1,4*%
%TO.N,NC1*%
X48390000Y-71020000D03*
D33*
%TO.P,K1,5*%
%TO.N,Net-(D3-A)*%
X48340000Y-58770000D03*
%TD*%
D10*
%TO.P,F8,1*%
%TO.N,TX*%
X124310000Y-97880000D03*
D11*
%TO.P,F8,2*%
X124310000Y-90260000D03*
%TD*%
D10*
%TO.P,P7,1*%
%TO.N,gas_heater*%
X90510000Y-99170000D03*
D11*
%TO.P,P7,2*%
X90510000Y-91550000D03*
%TD*%
D34*
%TO.P,D5,1,K*%
%TO.N,+15VCC1*%
X36290000Y-78900000D03*
D35*
%TO.P,D5,2,A*%
%TO.N,Net-(D5-A)*%
X46450000Y-78900000D03*
%TD*%
D10*
%TO.P,P1,1*%
%TO.N,GND1*%
X167710000Y-48830000D03*
D11*
%TO.P,P1,2*%
X175330000Y-48830000D03*
%TD*%
D10*
%TO.P,RE2,1*%
%TO.N,5V(uc)*%
X128620000Y-119610000D03*
D11*
%TO.P,RE2,2*%
%TO.N,B*%
X143860000Y-119610000D03*
%TD*%
D10*
%TO.P,RC1,1*%
%TO.N,Net-(RC1-Pad1)*%
X54810000Y-75470000D03*
D11*
%TO.P,RC1,2*%
%TO.N,IO2*%
X70050000Y-75470000D03*
%TD*%
D24*
%TO.P,U9,1*%
%TO.N,Net-(RC5-Pad1)*%
X55535000Y-94660000D03*
D11*
%TO.P,U9,2*%
%TO.N,GND2*%
X58075000Y-94660000D03*
%TO.P,U9,3*%
%TO.N,Net-(RC6-Pad2)*%
X58075000Y-87040000D03*
%TO.P,U9,4*%
%TO.N,+15VCC1*%
X55535000Y-87040000D03*
%TD*%
D24*
%TO.P,U4,1*%
%TO.N,Net-(RC1-Pad1)*%
X55595000Y-67180000D03*
D11*
%TO.P,U4,2*%
%TO.N,GND2*%
X58135000Y-67180000D03*
%TO.P,U4,3*%
%TO.N,Net-(RC2-Pad2)*%
X58135000Y-59560000D03*
%TO.P,U4,4*%
%TO.N,+15VCC1*%
X55595000Y-59560000D03*
%TD*%
D27*
%TO.P,RC22,1,1*%
%TO.N,Net-(RC21-Pad2)*%
X174530000Y-103280000D03*
D28*
%TO.P,RC22,2,2*%
X177030000Y-100780000D03*
%TO.P,RC22,3,3*%
%TO.N,Net-(CV10-Pad2)*%
X174530000Y-98280000D03*
%TD*%
D10*
%TO.P,P24,1*%
%TO.N,3V3*%
X137900000Y-68860000D03*
D11*
%TO.P,P24,2*%
X137900000Y-61240000D03*
%TD*%
D10*
%TO.P,P14,1*%
%TO.N,GND4*%
X73490000Y-79130000D03*
D11*
%TO.P,P14,2*%
X73490000Y-71510000D03*
%TD*%
D10*
%TO.P,F9,1*%
%TO.N,RX*%
X121000000Y-97860000D03*
D11*
%TO.P,F9,2*%
X121000000Y-90240000D03*
%TD*%
D10*
%TO.P,F6,1*%
%TO.N,GND1*%
X223920000Y-93370000D03*
D11*
%TO.P,F6,2*%
X231540000Y-93370000D03*
%TD*%
D10*
%TO.P,RV15,1*%
%TO.N,Net-(CV5-Pad2)*%
X177100000Y-71180000D03*
D11*
%TO.P,RV15,2*%
%TO.N,VOLTAJE*%
X161860000Y-71180000D03*
%TD*%
D12*
%TO.P,U8,1,GND*%
%TO.N,GND3*%
X152990000Y-189530000D03*
D13*
%TO.P,U8,2,VI*%
%TO.N,Net-(U8-VI)*%
X150450000Y-189530000D03*
%TO.P,U8,3,VO*%
%TO.N,-15VCC*%
X147910000Y-189530000D03*
%TD*%
D20*
%TO.P,J16,1,Pin_1*%
%TO.N,VCC2*%
X130610000Y-156060000D03*
D21*
%TO.P,J16,2,Pin_2*%
%TO.N,GND3*%
X134570000Y-156060000D03*
%TO.P,J16,3,Pin_3*%
X138530000Y-156060000D03*
%TD*%
D25*
%TO.P,J5,1,Pin_1*%
%TO.N,GND3*%
X207730000Y-23280000D03*
D26*
%TO.P,J5,2,Pin_2*%
%TO.N,+15VCC*%
X202730000Y-23280000D03*
%TO.P,J5,3,Pin_3*%
%TO.N,se\u00F1al HALL*%
X197730000Y-23280000D03*
%TO.P,J5,4,Pin_4*%
%TO.N,-15VCC*%
X192730000Y-23280000D03*
%TD*%
D36*
%TO.P,J12,1,Pin_1*%
%TO.N,GND4*%
X233970000Y-109390000D03*
D23*
%TO.P,J12,2,Pin_2*%
%TO.N,unconnected-(J12-Pin_2-Pad2)*%
X233970000Y-113350000D03*
%TO.P,J12,3,Pin_3*%
%TO.N,Net-(J12-Pin_3)*%
X233970000Y-117310000D03*
%TD*%
D10*
%TO.P,RV10,1*%
%TO.N,GND1*%
X142340000Y-46280000D03*
D11*
%TO.P,RV10,2*%
%TO.N,Net-(CV3-Pad1)*%
X142340000Y-31040000D03*
%TD*%
D10*
%TO.P,P17,1*%
%TO.N,VCC2*%
X126850000Y-153280000D03*
D11*
%TO.P,P17,2*%
X126850000Y-145660000D03*
%TD*%
D24*
%TO.P,C1,1*%
%TO.N,VCC2*%
X165550000Y-170910000D03*
D10*
%TO.P,C1,2*%
%TO.N,GND3*%
X163050000Y-170910000D03*
%TD*%
%TO.P,CV5,1*%
%TO.N,Net-(CV5-Pad1)*%
X162190000Y-89990000D03*
%TO.P,CV5,2*%
%TO.N,Net-(CV5-Pad2)*%
X157190000Y-89990000D03*
%TD*%
%TO.P,P12,1*%
%TO.N,GND3*%
X157050000Y-189480000D03*
D11*
%TO.P,P12,2*%
X164670000Y-189480000D03*
%TD*%
D27*
%TO.P,RV4,1,1*%
%TO.N,Net-(CV4-Pad1)*%
X158810000Y-40150000D03*
D28*
%TO.P,RV4,2,2*%
X156310000Y-42650000D03*
%TO.P,RV4,3,3*%
%TO.N,Net-(Q1-B)*%
X158810000Y-45150000D03*
%TD*%
D14*
%TO.P,Q5,1,C*%
%TO.N,Net-(D3-A)*%
X69290000Y-62400000D03*
D15*
%TO.P,Q5,2,B*%
%TO.N,Net-(Q5-B)*%
X71830000Y-59860000D03*
%TO.P,Q5,3,E*%
%TO.N,GND4*%
X74370000Y-62400000D03*
%TD*%
D10*
%TO.P,P5,1*%
%TO.N,GND4*%
X73500000Y-96720000D03*
D11*
%TO.P,P5,2*%
X73500000Y-89100000D03*
%TD*%
D10*
%TO.P,RV17,1*%
%TO.N,Net-(RV17-Pad1)*%
X193050000Y-111102651D03*
D11*
%TO.P,RV17,2*%
%TO.N,VCC1*%
X193050000Y-126342651D03*
%TD*%
D37*
%TO.P,L2,1,1*%
%TO.N,Net-(J1-Pin_3)*%
X40090000Y-25570000D03*
D17*
%TO.P,L2,2,2*%
%TO.N,Net-(L1-Pad2)*%
X52790000Y-25570000D03*
%TD*%
D38*
%TO.P,UV1,1*%
%TO.N,Net-(CV4-Pad1)*%
X169080000Y-32107500D03*
D39*
%TO.P,UV1,2*%
%TO.N,Net-(CV4-Pad2)*%
X171620000Y-32107500D03*
%TO.P,UV1,3*%
%TO.N,GND1*%
X174160000Y-32107500D03*
%TO.P,UV1,4*%
X176700000Y-32107500D03*
%TO.P,UV1,5*%
%TO.N,Net-(RV5-Pad2)*%
X176700000Y-24167500D03*
%TO.P,UV1,6*%
%TO.N,Net-(RV7-Pad1)*%
X174160000Y-24167500D03*
%TO.P,UV1,7*%
X171620000Y-24167500D03*
%TO.P,UV1,8*%
%TO.N,VCC1*%
X169080000Y-24167500D03*
%TD*%
D10*
%TO.P,CV4,1*%
%TO.N,Net-(CV4-Pad1)*%
X165110000Y-35040000D03*
%TO.P,CV4,2*%
%TO.N,Net-(CV4-Pad2)*%
X165110000Y-40040000D03*
%TD*%
D27*
%TO.P,RV14,1,1*%
%TO.N,Net-(RV13-Pad2)*%
X147880000Y-81810000D03*
D28*
%TO.P,RV14,2,2*%
X145380000Y-84310000D03*
%TO.P,RV14,3,3*%
%TO.N,Net-(CV5-Pad2)*%
X147880000Y-86810000D03*
%TD*%
D10*
%TO.P,RV8,1*%
%TO.N,GND1*%
X128320000Y-46390000D03*
D11*
%TO.P,RV8,2*%
%TO.N,Net-(CV3-Pad1)*%
X128320000Y-31150000D03*
%TD*%
D10*
%TO.P,RE3,1*%
%TO.N,5V(uc)*%
X160280000Y-135190000D03*
D11*
%TO.P,RE3,2*%
%TO.N,A*%
X160280000Y-119950000D03*
%TD*%
D10*
%TO.P,P3,1*%
%TO.N,GND1*%
X181880000Y-32980000D03*
D11*
%TO.P,P3,2*%
X181880000Y-25360000D03*
%TD*%
D10*
%TO.P,RC3,1*%
%TO.N,Net-(RC3-Pad1)*%
X54780000Y-128190000D03*
D11*
%TO.P,RC3,2*%
%TO.N,gas_heater*%
X70020000Y-128190000D03*
%TD*%
D10*
%TO.P,P26,1*%
%TO.N,3V3*%
X139140000Y-103370000D03*
D11*
%TO.P,P26,2*%
X139140000Y-95750000D03*
%TD*%
D10*
%TO.P,CV6,1*%
%TO.N,GND2*%
X166842500Y-78140000D03*
%TO.P,CV6,2*%
%TO.N,VOLTAJE*%
X161842500Y-78140000D03*
%TD*%
%TO.P,P23,1*%
%TO.N,Net-(U2-VI)*%
X214950000Y-177450000D03*
D11*
%TO.P,P23,2*%
X214950000Y-169830000D03*
%TD*%
D10*
%TO.P,P6,1*%
%TO.N,gas_heater*%
X82140000Y-112210000D03*
D11*
%TO.P,P6,2*%
X82140000Y-119830000D03*
%TD*%
D24*
%TO.P,C21,1*%
%TO.N,Net-(J12-Pin_3)*%
X225190000Y-176320000D03*
D10*
%TO.P,C21,2*%
%TO.N,GND4*%
X227690000Y-176320000D03*
%TD*%
D24*
%TO.P,C17,1*%
%TO.N,+15VCC*%
X145330000Y-164770000D03*
D10*
%TO.P,C17,2*%
%TO.N,GND3*%
X142830000Y-164770000D03*
%TD*%
%TO.P,P8,1*%
%TO.N,+15VCC1*%
X51910000Y-84540000D03*
D11*
%TO.P,P8,2*%
X51910000Y-76920000D03*
%TD*%
D12*
%TO.P,U3,1,VI*%
%TO.N,+15VCC1*%
X229880000Y-187265000D03*
D13*
%TO.P,U3,2,GND*%
%TO.N,GND4*%
X227340000Y-187265000D03*
%TO.P,U3,3,VO*%
%TO.N,Net-(J12-Pin_3)*%
X224800000Y-187265000D03*
%TD*%
D10*
%TO.P,RC17,1*%
%TO.N,se\u00F1al HALL*%
X203570000Y-34690000D03*
D11*
%TO.P,RC17,2*%
%TO.N,Net-(RC17-Pad2)*%
X203570000Y-49930000D03*
%TD*%
D24*
%TO.P,C20,1*%
%TO.N,+15VCC1*%
X203700000Y-175970000D03*
D10*
%TO.P,C20,2*%
%TO.N,GND4*%
X206200000Y-175970000D03*
%TD*%
%TO.P,F7,1*%
%TO.N,GND2*%
X180110000Y-75080000D03*
D11*
%TO.P,F7,2*%
X187730000Y-75080000D03*
%TD*%
D10*
%TO.P,P20,1*%
%TO.N,GND2*%
X165000000Y-122740000D03*
D11*
%TO.P,P20,2*%
X172620000Y-122740000D03*
%TD*%
D10*
%TO.P,RC19,1*%
%TO.N,Net-(RC19-Pad1)*%
X207540000Y-54290000D03*
D11*
%TO.P,RC19,2*%
%TO.N,Net-(RC18-Pad1)*%
X222780000Y-54290000D03*
%TD*%
D40*
%TO.P,D6,1,K*%
%TO.N,GND1*%
X216530000Y-113020000D03*
D41*
%TO.P,D6,2,A*%
%TO.N,Net-(D6-A)*%
X213990000Y-113020000D03*
%TD*%
D10*
%TO.P,P4,1*%
%TO.N,GND4*%
X76580000Y-118410000D03*
D11*
%TO.P,P4,2*%
X76580000Y-110790000D03*
%TD*%
D10*
%TO.P,F4,1*%
%TO.N,VCC2*%
X214950000Y-37350000D03*
D11*
%TO.P,F4,2*%
X222570000Y-37350000D03*
%TD*%
D10*
%TO.P,CV8,1*%
%TO.N,VCC1*%
X221550000Y-128220000D03*
%TO.P,CV8,2*%
%TO.N,GND1*%
X221550000Y-123220000D03*
%TD*%
D42*
%TO.P,J11,1,Pin_1*%
%TO.N,5V(uc)*%
X128970000Y-130190000D03*
D43*
%TO.P,J11,2,Pin_2*%
%TO.N,TX*%
X123970000Y-130190000D03*
%TO.P,J11,3,Pin_3*%
%TO.N,RX*%
X118970000Y-130190000D03*
%TO.P,J11,4,Pin_4*%
%TO.N,TX2*%
X113970000Y-130190000D03*
%TO.P,J11,5,Pin_5*%
%TO.N,RX2*%
X108970000Y-130190000D03*
%TO.P,J11,6,Pin_6*%
%TO.N,GND2*%
X103970000Y-130190000D03*
%TD*%
D10*
%TO.P,F11,1*%
%TO.N,RX2*%
X112270000Y-99390000D03*
D11*
%TO.P,F11,2*%
X112270000Y-107010000D03*
%TD*%
D10*
%TO.P,P18,1*%
%TO.N,VCC2*%
X171730000Y-160750000D03*
D11*
%TO.P,P18,2*%
X171730000Y-153130000D03*
%TD*%
D10*
%TO.P,CV3,1*%
%TO.N,Net-(CV3-Pad1)*%
X120280000Y-36050000D03*
%TO.P,CV3,2*%
%TO.N,GND1*%
X120280000Y-41050000D03*
%TD*%
%TO.P,P25,1*%
%TO.N,3V3*%
X137850000Y-89500000D03*
D11*
%TO.P,P25,2*%
X137850000Y-81880000D03*
%TD*%
D12*
%TO.P,U7,1,VI*%
%TO.N,Net-(U7-VI)*%
X143610000Y-154150000D03*
D13*
%TO.P,U7,2,GND*%
%TO.N,GND3*%
X146150000Y-154150000D03*
%TO.P,U7,3,VO*%
%TO.N,+15VCC*%
X148690000Y-154150000D03*
%TD*%
D25*
%TO.P,J9,1,Pin_1*%
%TO.N,GND2*%
X79570000Y-130580000D03*
D26*
%TO.P,J9,2,Pin_2*%
%TO.N,SDA*%
X84570000Y-130580000D03*
%TO.P,J9,3,Pin_3*%
%TO.N,SCL*%
X89570000Y-130580000D03*
%TO.P,J9,4,Pin_4*%
%TO.N,5V(uc)*%
X94570000Y-130580000D03*
%TD*%
D10*
%TO.P,C14,1*%
%TO.N,Net-(U7-VI)*%
X138560000Y-174000000D03*
%TO.P,C14,2*%
%TO.N,GND3*%
X138560000Y-169000000D03*
%TD*%
D25*
%TO.P,J2,1,Pin_1*%
%TO.N,GND2*%
X154160000Y-130680000D03*
D26*
%TO.P,J2,2,Pin_2*%
%TO.N,A*%
X149160000Y-130680000D03*
%TO.P,J2,3,Pin_3*%
%TO.N,B*%
X144160000Y-130680000D03*
%TO.P,J2,4,Pin_4*%
%TO.N,5V(uc)*%
X139160000Y-130680000D03*
%TD*%
%TO.P,K2,1*%
%TO.N,C2*%
X42660000Y-122970000D03*
D33*
%TO.P,K2,2*%
%TO.N,+15VCC1*%
X48710000Y-121020000D03*
D26*
%TO.P,K2,3*%
%TO.N,VCC2*%
X48710000Y-108820000D03*
%TO.P,K2,4*%
%TO.N,unconnected-(K2-Pad4)*%
X36660000Y-108770000D03*
D33*
%TO.P,K2,5*%
%TO.N,Net-(D4-A)*%
X36710000Y-121020000D03*
%TD*%
D10*
%TO.P,P2,1*%
%TO.N,5V(uc)*%
X154700000Y-75390000D03*
D11*
%TO.P,P2,2*%
X154700000Y-67770000D03*
%TD*%
D44*
%TO.P,UC5,1*%
%TO.N,Net-(Q2-E)*%
X211510000Y-76480000D03*
D45*
%TO.P,UC5,2*%
%TO.N,Net-(RC20-Pad1)*%
X211510000Y-73940000D03*
%TO.P,UC5,3*%
%TO.N,Net-(Cc9-Pad2)*%
X211510000Y-71400000D03*
%TO.P,UC5,4*%
%TO.N,GND3*%
X211510000Y-68860000D03*
%TO.P,UC5,5*%
%TO.N,GND2*%
X201350000Y-68860000D03*
%TO.P,UC5,6*%
%TO.N,Net-(CV10-Pad1)*%
X201350000Y-71400000D03*
%TO.P,UC5,7*%
%TO.N,unconnected-(UC5-Pad7)*%
X201350000Y-73940000D03*
%TO.P,UC5,8*%
%TO.N,unconnected-(UC5-Pad8)*%
X201350000Y-76480000D03*
%TD*%
D10*
%TO.P,RV19,1*%
%TO.N,SCL*%
X107090000Y-104900000D03*
D11*
%TO.P,RV19,2*%
%TO.N,5V(uc)*%
X107090000Y-120140000D03*
%TD*%
D10*
%TO.P,P10,1*%
%TO.N,GND2*%
X70450000Y-113910000D03*
D11*
%TO.P,P10,2*%
X70450000Y-106290000D03*
%TD*%
D46*
%TO.P,J15,1,Pin_1*%
%TO.N,VCC2*%
X122670000Y-154970000D03*
D47*
%TO.P,J15,2,Pin_2*%
%TO.N,+15VCC*%
X118710000Y-154970000D03*
%TO.P,J15,3,Pin_3*%
%TO.N,GND3*%
X114750000Y-154970000D03*
%TO.P,J15,4,Pin_4*%
%TO.N,-15VCC*%
X110790000Y-154970000D03*
%TD*%
D10*
%TO.P,C16,1*%
%TO.N,GND3*%
X138870000Y-181580000D03*
%TO.P,C16,2*%
%TO.N,Net-(U8-VI)*%
X138870000Y-186580000D03*
%TD*%
D24*
%TO.P,C13,1*%
%TO.N,Net-(U7-VI)*%
X128640000Y-171820000D03*
D10*
%TO.P,C13,2*%
%TO.N,GND3*%
X128640000Y-169320000D03*
%TD*%
%TO.P,CV1,1*%
%TO.N,Net-(CV1-Pad1)*%
X98230000Y-30890000D03*
%TO.P,CV1,2*%
%TO.N,GND1*%
X98230000Y-35890000D03*
%TD*%
%TO.P,RC20,1*%
%TO.N,Net-(RC20-Pad1)*%
X219270000Y-73790000D03*
D11*
%TO.P,RC20,2*%
%TO.N,VCC2*%
X219270000Y-58550000D03*
%TD*%
D48*
%TO.P,J6,1,Pin_1*%
%TO.N,C1*%
X25200000Y-63460000D03*
D43*
%TO.P,J6,2,Pin_2*%
%TO.N,NC1*%
X25200000Y-67420000D03*
%TO.P,J6,3,Pin_3*%
%TO.N,NA1*%
X25200000Y-71380000D03*
%TO.P,J6,4,Pin_4*%
%TO.N,C3*%
X25200000Y-75340000D03*
%TO.P,J6,5,Pin_5*%
%TO.N,NC3*%
X25200000Y-79300000D03*
%TO.P,J6,6,Pin_6*%
%TO.N,NA3*%
X25200000Y-83260000D03*
%TD*%
D49*
%TO.P,J20,1,Pin_1*%
%TO.N,GND2*%
X128590000Y-82490000D03*
D50*
%TO.P,J20,2,Pin_2*%
%TO.N,Net-(J20-Pin_2)*%
X126050000Y-82490000D03*
%TO.P,J20,3,Pin_3*%
%TO.N,SCL*%
X123510000Y-82490000D03*
%TO.P,J20,4,Pin_4*%
%TO.N,TX*%
X120970000Y-82490000D03*
%TO.P,J20,5,Pin_5*%
%TO.N,RX*%
X118430000Y-82490000D03*
%TO.P,J20,6,Pin_6*%
%TO.N,SDA*%
X115890000Y-82490000D03*
%TO.P,J20,7,Pin_7*%
%TO.N,GND2*%
X113350000Y-82490000D03*
%TO.P,J20,8,Pin_8*%
%TO.N,Net-(J20-Pin_8)*%
X110810000Y-82490000D03*
%TO.P,J20,9,Pin_9*%
%TO.N,Net-(J20-Pin_9)*%
X108270000Y-82490000D03*
%TO.P,J20,10,Pin_10*%
%TO.N,Net-(J20-Pin_10)*%
X105730000Y-82490000D03*
%TO.P,J20,11,Pin_11*%
%TO.N,TX2*%
X103190000Y-82490000D03*
%TO.P,J20,12,Pin_12*%
%TO.N,RX2*%
X100650000Y-82490000D03*
%TO.P,J20,13,Pin_13*%
%TO.N,IO4*%
X98110000Y-82490000D03*
%TO.P,J20,14,Pin_14*%
%TO.N,gas_heater*%
X95570000Y-82490000D03*
%TO.P,J20,15,Pin_15*%
%TO.N,IO2*%
X93030000Y-82490000D03*
%TO.P,J20,16,Pin_16*%
%TO.N,CORRIENTE*%
X90490000Y-82490000D03*
%TO.P,J20,17,Pin_17*%
%TO.N,Net-(J20-Pin_17)*%
X87950000Y-82490000D03*
%TO.P,J20,18,Pin_18*%
%TO.N,Net-(J20-Pin_18)*%
X85410000Y-82490000D03*
%TO.P,J20,19,Pin_19*%
%TO.N,Net-(J20-Pin_19)*%
X82870000Y-82490000D03*
%TD*%
D10*
%TO.P,P19,1*%
%TO.N,Net-(U7-VI)*%
X135060000Y-164240000D03*
D11*
%TO.P,P19,2*%
X135060000Y-171860000D03*
%TD*%
D10*
%TO.P,RE4,1*%
%TO.N,a*%
X147440000Y-106950000D03*
D11*
%TO.P,RE4,2*%
%TO.N,3V3*%
X162680000Y-106950000D03*
%TD*%
D10*
%TO.P,Cc12,1*%
%TO.N,GND2*%
X131080000Y-92470000D03*
%TO.P,Cc12,2*%
%TO.N,CORRIENTE*%
X131080000Y-97470000D03*
%TD*%
D44*
%TO.P,UV2,1*%
%TO.N,Net-(Q1-E)*%
X177350000Y-54300000D03*
D45*
%TO.P,UV2,2*%
%TO.N,Net-(RV12-Pad1)*%
X174810000Y-54300000D03*
%TO.P,UV2,3*%
%TO.N,Net-(CV4-Pad2)*%
X172270000Y-54300000D03*
%TO.P,UV2,4*%
%TO.N,GND1*%
X169730000Y-54300000D03*
%TO.P,UV2,5*%
%TO.N,GND2*%
X169730000Y-64460000D03*
%TO.P,UV2,6*%
%TO.N,Net-(CV5-Pad1)*%
X172270000Y-64460000D03*
%TO.P,UV2,7*%
%TO.N,unconnected-(UV2-Pad7)*%
X174810000Y-64460000D03*
%TO.P,UV2,8*%
%TO.N,unconnected-(UV2-Pad8)*%
X177350000Y-64460000D03*
%TD*%
D10*
%TO.P,P22,1*%
%TO.N,5V(uc)*%
X154640000Y-64440000D03*
D11*
%TO.P,P22,2*%
X154640000Y-56820000D03*
%TD*%
D10*
%TO.P,RV3,1*%
%TO.N,Net-(CV1-Pad1)*%
X109980000Y-27940000D03*
%TO.P,RV3,2*%
%TO.N,GND1*%
X105480000Y-37940000D03*
%TD*%
D51*
%TO.P,J3,1,Pin_1*%
%TO.N,Net-(D1-+)*%
X179960000Y-187490000D03*
D21*
%TO.P,J3,2,Pin_2*%
%TO.N,GND3*%
X176000000Y-187490000D03*
%TO.P,J3,3,Pin_3*%
%TO.N,Net-(D1--)*%
X172040000Y-187490000D03*
%TD*%
D10*
%TO.P,CV2,1*%
%TO.N,Net-(CV1-Pad1)*%
X149010000Y-36170000D03*
%TO.P,CV2,2*%
%TO.N,GND1*%
X149010000Y-41170000D03*
%TD*%
D31*
%TO.P,PS2,1,+VIN*%
%TO.N,Net-(J12-Pin_3)*%
X229670000Y-102180000D03*
D32*
%TO.P,PS2,2,-VIN*%
%TO.N,GND4*%
X227130000Y-102180000D03*
%TO.P,PS2,4,NC*%
%TO.N,unconnected-(PS2-NC-Pad4)*%
X222050000Y-102180000D03*
%TO.P,PS2,5,-VOUT*%
%TO.N,GND1*%
X219510000Y-102180000D03*
%TO.P,PS2,6,+VOUT*%
%TO.N,VCC1*%
X216970000Y-102180000D03*
%TD*%
D51*
%TO.P,J4,1,Pin_1*%
%TO.N,Net-(D2-+)*%
X195070000Y-187295000D03*
D21*
%TO.P,J4,2,Pin_2*%
%TO.N,unconnected-(J4-Pin_2-Pad2)*%
X191110000Y-187295000D03*
%TO.P,J4,3,Pin_3*%
%TO.N,Net-(D2--)*%
X187150000Y-187295000D03*
%TD*%
D34*
%TO.P,D4,1,K*%
%TO.N,+15VCC1*%
X47160000Y-128080000D03*
D35*
%TO.P,D4,2,A*%
%TO.N,Net-(D4-A)*%
X37000000Y-128080000D03*
%TD*%
D10*
%TO.P,RV9,1*%
%TO.N,GND1*%
X135590000Y-46340000D03*
D11*
%TO.P,RV9,2*%
%TO.N,Net-(CV3-Pad1)*%
X135590000Y-31100000D03*
%TD*%
D24*
%TO.P,C15,1*%
%TO.N,GND3*%
X128300000Y-181490000D03*
D10*
%TO.P,C15,2*%
%TO.N,Net-(U8-VI)*%
X128300000Y-183990000D03*
%TD*%
D14*
%TO.P,Q2,1,C*%
%TO.N,GND3*%
X224780000Y-66750000D03*
D15*
%TO.P,Q2,2,B*%
%TO.N,Net-(Q2-B)*%
X227320000Y-64210000D03*
%TO.P,Q2,3,E*%
%TO.N,Net-(Q2-E)*%
X229860000Y-66750000D03*
%TD*%
D36*
%TO.P,J18,1,Pin_1*%
%TO.N,GND4*%
X233535000Y-158225000D03*
D23*
%TO.P,J18,2,Pin_2*%
%TO.N,unconnected-(J18-Pin_2-Pad2)*%
X233535000Y-162185000D03*
%TO.P,J18,3,Pin_3*%
%TO.N,+15VCC1*%
X233535000Y-166145000D03*
%TD*%
D49*
%TO.P,J10,1,Pin_1*%
%TO.N,1*%
X120700000Y-54060000D03*
D50*
%TO.P,J10,2,Pin_2*%
%TO.N,2*%
X118160000Y-54060000D03*
%TO.P,J10,3,Pin_3*%
%TO.N,3*%
X115620000Y-54060000D03*
%TO.P,J10,4,Pin_4*%
%TO.N,4*%
X113080000Y-54060000D03*
%TO.P,J10,5,Pin_5*%
%TO.N,5*%
X110540000Y-54060000D03*
%TO.P,J10,6,Pin_6*%
%TO.N,6*%
X108000000Y-54060000D03*
%TO.P,J10,7,Pin_7*%
%TO.N,7*%
X105460000Y-54060000D03*
%TO.P,J10,8,Pin_8*%
%TO.N,8*%
X102920000Y-54060000D03*
%TO.P,J10,9*%
%TO.N,N/C*%
X100380000Y-54060000D03*
%TO.P,J10,10*%
X97840000Y-54060000D03*
%TD*%
D10*
%TO.P,P9,1*%
%TO.N,+15VCC1*%
X53620000Y-111910000D03*
D11*
%TO.P,P9,2*%
X53620000Y-104290000D03*
%TD*%
D24*
%TO.P,U6,1*%
%TO.N,Net-(RC3-Pad1)*%
X54735000Y-122450000D03*
D11*
%TO.P,U6,2*%
%TO.N,GND2*%
X57275000Y-122450000D03*
%TO.P,U6,3*%
%TO.N,Net-(RC4-Pad2)*%
X57275000Y-114830000D03*
%TO.P,U6,4*%
%TO.N,+15VCC1*%
X54735000Y-114830000D03*
%TD*%
D27*
%TO.P,RC18,1,1*%
%TO.N,Net-(RC18-Pad1)*%
X223820000Y-50520000D03*
D28*
%TO.P,RC18,2,2*%
X226320000Y-48020000D03*
%TO.P,RC18,3,3*%
%TO.N,Net-(Cc9-Pad2)*%
X223820000Y-45520000D03*
%TD*%
D26*
%TO.P,K3,1*%
%TO.N,C3*%
X41600000Y-83510000D03*
D33*
%TO.P,K3,2*%
%TO.N,+15VCC1*%
X35550000Y-85460000D03*
D26*
%TO.P,K3,3*%
%TO.N,NA3*%
X35550000Y-97660000D03*
%TO.P,K3,4*%
%TO.N,NC3*%
X47600000Y-97710000D03*
D33*
%TO.P,K3,5*%
%TO.N,Net-(D5-A)*%
X47550000Y-85460000D03*
%TD*%
D10*
%TO.P,P16,1*%
%TO.N,GND2*%
X78250000Y-83840000D03*
D11*
%TO.P,P16,2*%
X78250000Y-76220000D03*
%TD*%
D10*
%TO.P,CV9,1*%
%TO.N,VCC1*%
X215190000Y-128090000D03*
%TO.P,CV9,2*%
%TO.N,GND1*%
X215190000Y-123090000D03*
%TD*%
D52*
%TO.P,VR1,1*%
%TO.N,Net-(RV17-Pad1)*%
X202540000Y-114392651D03*
D53*
%TO.P,VR1,2*%
%TO.N,GND1*%
X201270000Y-115662651D03*
%TO.P,VR1,3*%
%TO.N,Net-(RV17-Pad1)*%
X200000000Y-114392651D03*
%TD*%
D14*
%TO.P,Q4,1,S*%
%TO.N,a*%
X161420000Y-113620000D03*
D15*
%TO.P,Q4,2,G*%
%TO.N,3V3*%
X163960000Y-111080000D03*
%TO.P,Q4,3,D*%
%TO.N,A*%
X166500000Y-113620000D03*
%TD*%
D36*
%TO.P,J19,1,Pin_1*%
%TO.N,GND4*%
X24810000Y-47830000D03*
D23*
%TO.P,J19,2,Pin_2*%
%TO.N,unconnected-(J19-Pin_2-Pad2)*%
X24810000Y-51790000D03*
%TO.P,J19,3,Pin_3*%
%TO.N,+15VCC1*%
X24810000Y-55750000D03*
%TD*%
D10*
%TO.P,RV12,1*%
%TO.N,Net-(RV12-Pad1)*%
X190760000Y-57430000D03*
D11*
%TO.P,RV12,2*%
%TO.N,VCC1*%
X190760000Y-42190000D03*
%TD*%
D10*
%TO.P,RC6,1*%
%TO.N,Net-(Q7-B)*%
X63670000Y-96250000D03*
D11*
%TO.P,RC6,2*%
%TO.N,Net-(RC6-Pad2)*%
X63670000Y-81010000D03*
%TD*%
D10*
%TO.P,RC4,1*%
%TO.N,Net-(Q6-B)*%
X63430000Y-123400000D03*
D11*
%TO.P,RC4,2*%
%TO.N,Net-(RC4-Pad2)*%
X63430000Y-108160000D03*
%TD*%
D42*
%TO.P,J7,1,Pin_1*%
%TO.N,SCL*%
X22810000Y-130270000D03*
D43*
%TO.P,J7,2,Pin_2*%
%TO.N,5V(uc)*%
X22810000Y-125270000D03*
%TO.P,J7,3,Pin_3*%
%TO.N,GND3*%
X22810000Y-120270000D03*
%TO.P,J7,4,Pin_4*%
%TO.N,GND2*%
X22810000Y-115270000D03*
%TO.P,J7,5,Pin_5*%
%TO.N,C2*%
X22810000Y-110270000D03*
%TO.P,J7,6,Pin_6*%
%TO.N,SDA*%
X22810000Y-105270000D03*
%TD*%
D10*
%TO.P,Cc8,1*%
%TO.N,se\u00F1al HALL*%
X210210000Y-33850000D03*
%TO.P,Cc8,2*%
%TO.N,GND3*%
X215210000Y-33850000D03*
%TD*%
%TO.P,RV13,1*%
%TO.N,Net-(CV5-Pad1)*%
X167382500Y-84090000D03*
D11*
%TO.P,RV13,2*%
%TO.N,Net-(RV13-Pad2)*%
X152142500Y-84090000D03*
%TD*%
D34*
%TO.P,D3,1,K*%
%TO.N,+15VCC1*%
X37120000Y-51650000D03*
D35*
%TO.P,D3,2,A*%
%TO.N,Net-(D3-A)*%
X47280000Y-51650000D03*
%TD*%
D10*
%TO.P,P15,1*%
%TO.N,5V(uc)*%
X110660000Y-113660000D03*
D11*
%TO.P,P15,2*%
X125900000Y-113660000D03*
%TD*%
D38*
%TO.P,UV3,1*%
%TO.N,Net-(CV10-Pad2)*%
X190910000Y-87290000D03*
D39*
%TO.P,UV3,2*%
%TO.N,Net-(CV10-Pad1)*%
X190910000Y-84750000D03*
%TO.P,UV3,3*%
%TO.N,GND2*%
X190910000Y-82210000D03*
%TO.P,UV3,4*%
X190910000Y-79670000D03*
%TO.P,UV3,5*%
X182970000Y-79670000D03*
%TO.P,UV3,6*%
%TO.N,Net-(CV5-Pad1)*%
X182970000Y-82210000D03*
%TO.P,UV3,7*%
%TO.N,Net-(CV5-Pad2)*%
X182970000Y-84750000D03*
%TO.P,UV3,8*%
%TO.N,5V(uc)*%
X182970000Y-87290000D03*
%TD*%
D10*
%TO.P,RE1,1*%
%TO.N,b*%
X127780000Y-106720000D03*
D11*
%TO.P,RE1,2*%
%TO.N,3V3*%
X143020000Y-106720000D03*
%TD*%
D10*
%TO.P,P21,1*%
%TO.N,Net-(CV10-Pad2)*%
X193870000Y-98560000D03*
D11*
%TO.P,P21,2*%
X193870000Y-90940000D03*
%TD*%
D38*
%TO.P,UC4,1*%
%TO.N,Net-(Cc9-Pad1)*%
X218327500Y-48400000D03*
D39*
%TO.P,UC4,2*%
%TO.N,Net-(Cc9-Pad2)*%
X218327500Y-45860000D03*
%TO.P,UC4,3*%
%TO.N,GND1*%
X218327500Y-43320000D03*
%TO.P,UC4,4*%
%TO.N,GND3*%
X218327500Y-40780000D03*
%TO.P,UC4,5*%
%TO.N,Net-(RC17-Pad2)*%
X210387500Y-40780000D03*
%TO.P,UC4,6*%
%TO.N,Net-(RC19-Pad1)*%
X210387500Y-43320000D03*
%TO.P,UC4,7*%
X210387500Y-45860000D03*
%TO.P,UC4,8*%
%TO.N,VCC2*%
X210387500Y-48400000D03*
%TD*%
D27*
%TO.P,RV6,1,1*%
%TO.N,Net-(RV6-Pad1)*%
X178410000Y-42190000D03*
D28*
%TO.P,RV6,2,2*%
X175910000Y-39690000D03*
%TO.P,RV6,3,3*%
%TO.N,Net-(CV4-Pad2)*%
X173410000Y-42190000D03*
%TD*%
D29*
%TO.P,RV11,1*%
%TO.N,Net-(L3-Pad2)*%
X58565000Y-41190000D03*
D30*
%TO.P,RV11,2*%
%TO.N,GND1*%
X89045000Y-41190000D03*
%TD*%
D14*
%TO.P,Q1,1,C*%
%TO.N,GND1*%
X154940000Y-50790000D03*
D15*
%TO.P,Q1,2,B*%
%TO.N,Net-(Q1-B)*%
X157480000Y-48250000D03*
%TO.P,Q1,3,E*%
%TO.N,Net-(Q1-E)*%
X160020000Y-50790000D03*
%TD*%
D27*
%TO.P,RV2,1,1*%
%TO.N,Net-(CV1-Pad1)*%
X120220000Y-26200000D03*
D28*
%TO.P,RV2,2,2*%
X117720000Y-28700000D03*
%TO.P,RV2,3,3*%
%TO.N,Net-(CV3-Pad1)*%
X120220000Y-31200000D03*
%TD*%
D10*
%TO.P,Cc9,1*%
%TO.N,Net-(Cc9-Pad1)*%
X232650000Y-50660000D03*
%TO.P,Cc9,2*%
%TO.N,Net-(Cc9-Pad2)*%
X232650000Y-45660000D03*
%TD*%
%TO.P,RV23,1*%
%TO.N,Net-(CV10-Pad2)*%
X166930000Y-98300000D03*
D11*
%TO.P,RV23,2*%
%TO.N,CORRIENTE*%
X151690000Y-98300000D03*
%TD*%
D14*
%TO.P,Q6,1,C*%
%TO.N,Net-(D4-A)*%
X68890000Y-121010000D03*
D15*
%TO.P,Q6,2,B*%
%TO.N,Net-(Q6-B)*%
X71430000Y-118470000D03*
%TO.P,Q6,3,E*%
%TO.N,GND4*%
X73970000Y-121010000D03*
%TD*%
D10*
%TO.P,P13,1*%
%TO.N,Net-(U7-VI)*%
X154330000Y-156570000D03*
D11*
%TO.P,P13,2*%
X154330000Y-148950000D03*
%TD*%
D10*
%TO.P,F13,1*%
%TO.N,SDA*%
X99800000Y-101320000D03*
D11*
%TO.P,F13,2*%
X99800000Y-93700000D03*
%TD*%
D10*
%TO.P,RC2,1*%
%TO.N,Net-(Q5-B)*%
X63730000Y-70570000D03*
D11*
%TO.P,RC2,2*%
%TO.N,Net-(RC2-Pad2)*%
X63730000Y-55330000D03*
%TD*%
D54*
%TO.P,J14,1,Pin_1*%
%TO.N,VCC2*%
X232230000Y-37740000D03*
D55*
%TO.P,J14,2,Pin_2*%
%TO.N,-15VCC*%
X232230000Y-33780000D03*
%TO.P,J14,3,Pin_3*%
%TO.N,GND3*%
X232230000Y-29820000D03*
%TO.P,J14,4,Pin_4*%
%TO.N,+15VCC*%
X232230000Y-25860000D03*
%TD*%
D10*
%TO.P,RV5,1*%
%TO.N,Net-(CV1-Pad1)*%
X143550000Y-24060000D03*
D11*
%TO.P,RV5,2*%
%TO.N,Net-(RV5-Pad2)*%
X158790000Y-24060000D03*
%TD*%
D10*
%TO.P,RC5,1*%
%TO.N,Net-(RC5-Pad1)*%
X54990000Y-100410000D03*
D11*
%TO.P,RC5,2*%
%TO.N,IO3*%
X70230000Y-100410000D03*
%TD*%
D16*
%TO.P,D2,1,+*%
%TO.N,Net-(D2-+)*%
X194625000Y-161585000D03*
D17*
%TO.P,D2,2*%
%TO.N,GND4*%
X194625000Y-156505000D03*
%TO.P,D2,3,-*%
%TO.N,Net-(D2--)*%
X189545000Y-156505000D03*
%TO.P,D2,4*%
%TO.N,Net-(U2-VI)*%
X189545000Y-161585000D03*
%TD*%
D37*
%TO.P,L4,1,1*%
%TO.N,Net-(J1-Pin_1)*%
X39080000Y-41060000D03*
D17*
%TO.P,L4,2,2*%
%TO.N,Net-(L3-Pad2)*%
X51780000Y-41060000D03*
%TD*%
D24*
%TO.P,C2,1*%
%TO.N,VCC1*%
X201460000Y-127092651D03*
D10*
%TO.P,C2,2*%
%TO.N,GND1*%
X201460000Y-124592651D03*
%TD*%
%TO.P,F12,1*%
%TO.N,SCL*%
X107180000Y-101460000D03*
D11*
%TO.P,F12,2*%
X107180000Y-93840000D03*
%TD*%
D22*
%TO.P,J1,1,Pin_1*%
%TO.N,Net-(J1-Pin_1)*%
X30440000Y-35770000D03*
D23*
%TO.P,J1,2,Pin_2*%
%TO.N,unconnected-(J1-Pin_2-Pad2)*%
X30440000Y-31810000D03*
%TO.P,J1,3,Pin_3*%
%TO.N,Net-(J1-Pin_3)*%
X30440000Y-27850000D03*
%TD*%
D10*
%TO.P,CV7,1*%
%TO.N,GND2*%
X189140000Y-91330000D03*
%TO.P,CV7,2*%
%TO.N,5V(uc)*%
X184140000Y-91330000D03*
%TD*%
%TO.P,RV7,1*%
%TO.N,Net-(RV7-Pad1)*%
X186130000Y-27050000D03*
D11*
%TO.P,RV7,2*%
%TO.N,Net-(RV6-Pad1)*%
X186130000Y-42290000D03*
%TD*%
D12*
%TO.P,U5,1,VI*%
%TO.N,+15VCC*%
X159980000Y-153880000D03*
D13*
%TO.P,U5,2,GND*%
%TO.N,GND3*%
X162520000Y-153880000D03*
%TO.P,U5,3,VO*%
%TO.N,VCC2*%
X165060000Y-153880000D03*
%TD*%
D56*
%TO.P,L1,1,1*%
%TO.N,Net-(J1-Pin_3)*%
X43750000Y-25600000D03*
%TO.P,L1,2,2*%
%TO.N,Net-(L1-Pad2)*%
X48750000Y-25600000D03*
%TD*%
%TO.P,L3,1,1*%
%TO.N,Net-(J1-Pin_1)*%
X43150000Y-41210000D03*
%TO.P,L3,2,2*%
%TO.N,Net-(L3-Pad2)*%
X48150000Y-41210000D03*
%TD*%
D57*
%TO.N,GND3*%
X214370000Y-64180000D02*
X212470000Y-62280000D01*
D58*
X142830000Y-164770000D02*
X142830000Y-162825000D01*
D57*
X218327500Y-36967500D02*
X218327500Y-40780000D01*
D58*
X176000000Y-190470000D02*
X174610000Y-191860000D01*
D59*
X115180000Y-159380000D02*
X115180000Y-155250000D01*
D58*
X167800000Y-189890000D02*
X162960000Y-185050000D01*
D57*
X224780000Y-62020000D02*
X224780000Y-61720000D01*
D60*
X22900000Y-94150000D02*
X22900000Y-90190000D01*
D58*
X162960000Y-185050000D02*
X162960000Y-177380000D01*
X162520000Y-152450000D02*
X161230000Y-151160000D01*
X162960000Y-172720000D02*
X161150000Y-170910000D01*
D57*
X207730000Y-27240000D02*
X208600000Y-27240000D01*
X208600000Y-27240000D02*
X215210000Y-33850000D01*
X219960000Y-56900000D02*
X217350000Y-56900000D01*
X212470000Y-62280000D02*
X212470000Y-48790000D01*
D59*
X115180000Y-165280000D02*
X115180000Y-159380000D01*
D58*
X134570000Y-159480000D02*
X134570000Y-156060000D01*
X134620000Y-159530000D02*
X134570000Y-159480000D01*
X131860000Y-147060000D02*
X130650000Y-148270000D01*
X164670000Y-189750000D02*
X164670000Y-189480000D01*
D57*
X215210000Y-33850000D02*
X215815000Y-34455000D01*
D58*
X130800000Y-169000000D02*
X128960000Y-169000000D01*
X162550000Y-157720000D02*
X162560000Y-157720000D01*
X154190000Y-166080000D02*
X162550000Y-157720000D01*
D61*
X211510000Y-68860000D02*
X212130000Y-68240000D01*
D58*
X176000000Y-187490000D02*
X176000000Y-190470000D01*
X157050000Y-182930000D02*
X153715000Y-179595000D01*
D61*
X224780000Y-67820000D02*
X224780000Y-66750000D01*
D59*
X128300000Y-181490000D02*
X128300000Y-178400000D01*
D58*
X125120000Y-169320000D02*
X115180000Y-159380000D01*
X142970000Y-175110000D02*
X144050000Y-174030000D01*
X161230000Y-151160000D02*
X157680000Y-151160000D01*
X142970000Y-181580000D02*
X142970000Y-175110000D01*
X157680000Y-151160000D02*
X156740000Y-152100000D01*
X146150000Y-159505000D02*
X146150000Y-154150000D01*
D60*
X18560000Y-116020000D02*
X22810000Y-120270000D01*
X18560000Y-95390000D02*
X18560000Y-116020000D01*
D57*
X216930000Y-57320000D02*
X216930000Y-63170000D01*
D58*
X167370000Y-190320000D02*
X165240000Y-190320000D01*
D60*
X19800000Y-94150000D02*
X18560000Y-95390000D01*
D58*
X162520000Y-153880000D02*
X162520000Y-152450000D01*
X138870000Y-181580000D02*
X131480000Y-181580000D01*
D57*
X224780000Y-62020000D02*
X224780000Y-66750000D01*
D58*
X167800000Y-189890000D02*
X167370000Y-190320000D01*
D57*
X216930000Y-40780000D02*
X214565000Y-43145000D01*
D58*
X162560000Y-157720000D02*
X162520000Y-157680000D01*
D57*
X216220000Y-34860000D02*
X215815000Y-34455000D01*
D58*
X165240000Y-190320000D02*
X164670000Y-189750000D01*
X134570000Y-156060000D02*
X138530000Y-156060000D01*
X128960000Y-169000000D02*
X128640000Y-169320000D01*
X148540000Y-147060000D02*
X131860000Y-147060000D01*
D57*
X214565000Y-46695000D02*
X214565000Y-43145000D01*
X215920000Y-64180000D02*
X214370000Y-64180000D01*
X212470000Y-48790000D02*
X214565000Y-46695000D01*
D58*
X142830000Y-162825000D02*
X146150000Y-159505000D01*
D59*
X128300000Y-178400000D02*
X115180000Y-165280000D01*
D58*
X152990000Y-189530000D02*
X157000000Y-189530000D01*
X128640000Y-169320000D02*
X128640000Y-165510000D01*
X131480000Y-181580000D02*
X128300000Y-178400000D01*
D57*
X220200000Y-34860000D02*
X216220000Y-34860000D01*
X217350000Y-56900000D02*
X216930000Y-57320000D01*
X216930000Y-63170000D02*
X215920000Y-64180000D01*
D58*
X156740000Y-152100000D02*
X153580000Y-152100000D01*
D57*
X207730000Y-23280000D02*
X207730000Y-27240000D01*
D58*
X162960000Y-177380000D02*
X162960000Y-172720000D01*
X161150000Y-170910000D02*
X156320000Y-166080000D01*
X154190000Y-166080000D02*
X152000000Y-166080000D01*
X169770000Y-191860000D02*
X167800000Y-189890000D01*
D57*
X224780000Y-61650000D02*
X224780000Y-62020000D01*
D58*
X138560000Y-169000000D02*
X130800000Y-169000000D01*
X156320000Y-166080000D02*
X154190000Y-166080000D01*
X162520000Y-157680000D02*
X162520000Y-153880000D01*
X128640000Y-165510000D02*
X134620000Y-159530000D01*
D57*
X218327500Y-40780000D02*
X216930000Y-40780000D01*
D58*
X138100000Y-155755000D02*
X138100000Y-154360000D01*
D57*
X224780000Y-61720000D02*
X219960000Y-56900000D01*
X225240000Y-29820000D02*
X232230000Y-29820000D01*
X220200000Y-34860000D02*
X225240000Y-29820000D01*
D61*
X212130000Y-68240000D02*
X224360000Y-68240000D01*
D58*
X153580000Y-152100000D02*
X148540000Y-147060000D01*
X157050000Y-189480000D02*
X157050000Y-182930000D01*
X128640000Y-169320000D02*
X125120000Y-169320000D01*
X114750000Y-151310000D02*
X114750000Y-154970000D01*
X142970000Y-181580000D02*
X138870000Y-181580000D01*
X174610000Y-191860000D02*
X169770000Y-191860000D01*
D60*
X22900000Y-94150000D02*
X19800000Y-94150000D01*
D58*
X130650000Y-148270000D02*
X117790000Y-148270000D01*
X144050000Y-174030000D02*
X152000000Y-166080000D01*
X157000000Y-189530000D02*
X157050000Y-189480000D01*
X142770000Y-164790000D02*
X138560000Y-169000000D01*
X153715000Y-179595000D02*
X151480000Y-177360000D01*
X117790000Y-148270000D02*
X114750000Y-151310000D01*
D57*
X215815000Y-34455000D02*
X218327500Y-36967500D01*
D58*
X163050000Y-170910000D02*
X161150000Y-170910000D01*
D61*
X224360000Y-68240000D02*
X224780000Y-67820000D01*
D58*
%TO.N,Net-(U7-VI)*%
X169820000Y-154870000D02*
X169820000Y-151170000D01*
D62*
X128640000Y-171820000D02*
X136380000Y-171820000D01*
D58*
X169820000Y-151170000D02*
X169580000Y-150930000D01*
X139691370Y-174000000D02*
X150440000Y-163251370D01*
D62*
X136380000Y-171820000D02*
X138560000Y-174000000D01*
D58*
X150440000Y-162340000D02*
X154330000Y-158450000D01*
X135060000Y-164240000D02*
X136390000Y-164240000D01*
D62*
X138560000Y-174000000D02*
X139691370Y-174000000D01*
D58*
X150440000Y-163251370D02*
X150440000Y-162340000D01*
X169580000Y-150930000D02*
X169370000Y-150930000D01*
X154330000Y-148950000D02*
X167390000Y-148950000D01*
X176195000Y-161245000D02*
X169820000Y-154870000D01*
X136390000Y-164240000D02*
X143610000Y-157020000D01*
X167390000Y-148950000D02*
X167730000Y-149290000D01*
X154330000Y-158450000D02*
X154330000Y-156570000D01*
X143610000Y-157020000D02*
X143610000Y-154150000D01*
X169370000Y-150930000D02*
X167730000Y-149290000D01*
%TO.N,Net-(U8-VI)*%
X145540000Y-175570000D02*
X146520000Y-174590000D01*
X158460000Y-174590000D02*
X159730000Y-175860000D01*
X184730000Y-159620000D02*
X184730000Y-180100000D01*
X157870000Y-193930000D02*
X152160000Y-193930000D01*
X184730000Y-180100000D02*
X183440000Y-181390000D01*
X152160000Y-193930000D02*
X150450000Y-192220000D01*
X128300000Y-183990000D02*
X136280000Y-183990000D01*
X141480000Y-186580000D02*
X145540000Y-182520000D01*
X180500000Y-193760000D02*
X180500000Y-193930000D01*
X145540000Y-182520000D02*
X145540000Y-175570000D01*
X159730000Y-192070000D02*
X157870000Y-193930000D01*
X183440000Y-181390000D02*
X183440000Y-190820000D01*
X138870000Y-186580000D02*
X141480000Y-186580000D01*
X159730000Y-175860000D02*
X159730000Y-192070000D01*
X150450000Y-192220000D02*
X150450000Y-189530000D01*
X146520000Y-174590000D02*
X158460000Y-174590000D01*
X181275000Y-156165000D02*
X184730000Y-159620000D01*
X180500000Y-193930000D02*
X157870000Y-193930000D01*
X136280000Y-183990000D02*
X138870000Y-186580000D01*
X183440000Y-190820000D02*
X180500000Y-193760000D01*
D57*
%TO.N,Net-(Cc9-Pad2)*%
X214990000Y-49197500D02*
X214990000Y-62180000D01*
X223960000Y-45660000D02*
X223820000Y-45520000D01*
D61*
X211510000Y-71400000D02*
X213390000Y-71400000D01*
D57*
X218327500Y-45860000D02*
X214990000Y-49197500D01*
X232650000Y-45660000D02*
X223960000Y-45660000D01*
D61*
X213390000Y-71400000D02*
X214990000Y-69800000D01*
D57*
X223480000Y-45860000D02*
X223820000Y-45520000D01*
X218327500Y-45860000D02*
X223480000Y-45860000D01*
%TO.N,Net-(Cc9-Pad1)*%
X218327500Y-48400000D02*
X218327500Y-52917500D01*
X227880000Y-57700000D02*
X230380000Y-55200000D01*
X227150000Y-56440000D02*
X227880000Y-57170000D01*
X218327500Y-52917500D02*
X219087500Y-52917500D01*
X227880000Y-57170000D02*
X227880000Y-57700000D01*
X230380000Y-52930000D02*
X232650000Y-50660000D01*
X219087500Y-52917500D02*
X222610000Y-56440000D01*
X222610000Y-56440000D02*
X227150000Y-56440000D01*
X230380000Y-55200000D02*
X230380000Y-52930000D01*
%TO.N,GND2*%
X207730000Y-80220000D02*
X211040000Y-83530000D01*
X113350000Y-82050000D02*
X113350000Y-85330000D01*
X190910000Y-77840000D02*
X190910000Y-76810000D01*
X182970000Y-79670000D02*
X168372500Y-79670000D01*
X128590000Y-82050000D02*
X128590000Y-85330000D01*
D60*
X29920000Y-130080000D02*
X34460000Y-134620000D01*
X57275000Y-122450000D02*
X59525000Y-124700000D01*
D57*
X66920000Y-99510000D02*
X66920000Y-104910000D01*
D60*
X178820000Y-61190000D02*
X180760000Y-63130000D01*
D57*
X211040000Y-83530000D02*
X216500000Y-83530000D01*
D60*
X34460000Y-134620000D02*
X56610000Y-134620000D01*
D57*
X60150000Y-73210000D02*
X60260000Y-73100000D01*
X99660000Y-134500000D02*
X98280000Y-134500000D01*
X128630000Y-85370000D02*
X130755000Y-87495000D01*
X169730000Y-75252500D02*
X166842500Y-78140000D01*
X66920000Y-104910000D02*
X68300000Y-106290000D01*
X188430000Y-90620000D02*
X189140000Y-91330000D01*
X154160000Y-130680000D02*
X154790000Y-130680000D01*
X128590000Y-85330000D02*
X128630000Y-85370000D01*
X60260000Y-73100000D02*
X82480000Y-73100000D01*
D60*
X166890000Y-59970000D02*
X166920000Y-60000000D01*
D57*
X126270000Y-51610000D02*
X129330000Y-54670000D01*
X172620000Y-129910000D02*
X172620000Y-122740000D01*
X219210000Y-86240000D02*
X219210000Y-86460000D01*
X81370000Y-73100000D02*
X78250000Y-76220000D01*
D60*
X174650000Y-61190000D02*
X178820000Y-61190000D01*
D57*
X113350000Y-85330000D02*
X113390000Y-85370000D01*
D60*
X56610000Y-134620000D02*
X59525000Y-131705000D01*
D57*
X93320000Y-139460000D02*
X91370000Y-139460000D01*
D60*
X180760000Y-63130000D02*
X180760000Y-65490000D01*
D57*
X182970000Y-77940000D02*
X180110000Y-75080000D01*
D60*
X22810000Y-115270000D02*
X29920000Y-122380000D01*
D57*
X168372500Y-79670000D02*
X166842500Y-78140000D01*
X91370000Y-139460000D02*
X72190000Y-139460000D01*
X182970000Y-79670000D02*
X182970000Y-77940000D01*
X58135000Y-67180000D02*
X58135000Y-71195000D01*
X190910000Y-82210000D02*
X190910000Y-79670000D01*
X71700000Y-139950000D02*
X71700000Y-140280000D01*
X82480000Y-73100000D02*
X95610000Y-59970000D01*
X190910000Y-82210000D02*
X189400000Y-82210000D01*
D60*
X154160000Y-130210000D02*
X154160000Y-130680000D01*
D57*
X60350000Y-99510000D02*
X66920000Y-99510000D01*
X201350000Y-68860000D02*
X199890000Y-68860000D01*
X207730000Y-71880000D02*
X207730000Y-80220000D01*
X188430000Y-83180000D02*
X188430000Y-90620000D01*
X76500000Y-85590000D02*
X78250000Y-83840000D01*
X103970000Y-130190000D02*
X99660000Y-134500000D01*
X201350000Y-68860000D02*
X204710000Y-68860000D01*
X82480000Y-73100000D02*
X81370000Y-73100000D01*
X91370000Y-139460000D02*
X163910000Y-139460000D01*
D60*
X59830000Y-122450000D02*
X67030000Y-115250000D01*
X166510000Y-60350000D02*
X166890000Y-59970000D01*
D57*
X129330000Y-54670000D02*
X139050000Y-54670000D01*
D60*
X180760000Y-65490000D02*
X178810000Y-67440000D01*
X57275000Y-122450000D02*
X59830000Y-122450000D01*
D57*
X199890000Y-68860000D02*
X190910000Y-77840000D01*
X93600000Y-50270000D02*
X117080000Y-50270000D01*
X163910000Y-139460000D02*
X173040000Y-130330000D01*
X169730000Y-64460000D02*
X169730000Y-66280000D01*
X216500000Y-83530000D02*
X219210000Y-86240000D01*
X58135000Y-71195000D02*
X60150000Y-73210000D01*
X85450000Y-58420000D02*
X93600000Y-50270000D01*
D60*
X162060000Y-122310000D02*
X162490000Y-122740000D01*
D57*
X204710000Y-68860000D02*
X207460000Y-71610000D01*
D60*
X170890000Y-67440000D02*
X169730000Y-66280000D01*
D61*
X78570000Y-131580000D02*
X79570000Y-130580000D01*
D60*
X69110000Y-115250000D02*
X70450000Y-113910000D01*
D57*
X190910000Y-79670000D02*
X190910000Y-82030000D01*
D60*
X145827500Y-54522500D02*
X151655000Y-60350000D01*
D57*
X118420000Y-51610000D02*
X126270000Y-51610000D01*
X68300000Y-106290000D02*
X70450000Y-106290000D01*
D60*
X29920000Y-122380000D02*
X29920000Y-130080000D01*
D57*
X189180000Y-75080000D02*
X187730000Y-75080000D01*
X58075000Y-94660000D02*
X58075000Y-97235000D01*
D60*
X151655000Y-60350000D02*
X166510000Y-60350000D01*
D61*
X64120000Y-131580000D02*
X73130000Y-131580000D01*
D60*
X59525000Y-131705000D02*
X59525000Y-124700000D01*
D57*
X76500000Y-89930000D02*
X76500000Y-85590000D01*
D60*
X67030000Y-115250000D02*
X69110000Y-115250000D01*
D61*
X73130000Y-131580000D02*
X78570000Y-131580000D01*
D60*
X162490000Y-122740000D02*
X165000000Y-122740000D01*
D57*
X190910000Y-77840000D02*
X190910000Y-79670000D01*
D61*
X72780000Y-131580000D02*
X71700000Y-132660000D01*
D57*
X131080000Y-87820000D02*
X131080000Y-92470000D01*
X139050000Y-54670000D02*
X139197500Y-54522500D01*
D60*
X162060000Y-122310000D02*
X154160000Y-130210000D01*
D57*
X58075000Y-97235000D02*
X60350000Y-99510000D01*
X190910000Y-82030000D02*
X190390000Y-82550000D01*
X190910000Y-76810000D02*
X189180000Y-75080000D01*
D61*
X73130000Y-131580000D02*
X72780000Y-131580000D01*
D60*
X173460000Y-60000000D02*
X174650000Y-61190000D01*
D57*
X117080000Y-50270000D02*
X118420000Y-51610000D01*
X189400000Y-82210000D02*
X188430000Y-83180000D01*
D60*
X166920000Y-60000000D02*
X173460000Y-60000000D01*
D57*
X98280000Y-134500000D02*
X93320000Y-139460000D01*
X207460000Y-71610000D02*
X207730000Y-71880000D01*
X66920000Y-99510000D02*
X76500000Y-89930000D01*
X85450000Y-59970000D02*
X85450000Y-58420000D01*
X169730000Y-66280000D02*
X169730000Y-75252500D01*
X130755000Y-87495000D02*
X131080000Y-87820000D01*
D60*
X178810000Y-67440000D02*
X170890000Y-67440000D01*
D57*
X139197500Y-54522500D02*
X145827500Y-54522500D01*
X173040000Y-130330000D02*
X172620000Y-129910000D01*
D61*
X64120000Y-131580000D02*
X59525000Y-126985000D01*
D57*
X72190000Y-139460000D02*
X71700000Y-139950000D01*
D58*
%TO.N,VCC2*%
X126410000Y-153720000D02*
X126850000Y-153280000D01*
D60*
X32240000Y-102030000D02*
X41920000Y-102030000D01*
X28320000Y-98110000D02*
X32240000Y-102030000D01*
D57*
X210387500Y-48400000D02*
X210387500Y-49667500D01*
D58*
X130540000Y-144930000D02*
X168290000Y-144930000D01*
X122670000Y-154970000D02*
X126410000Y-154970000D01*
X168290000Y-144930000D02*
X171910000Y-148550000D01*
D60*
X222570000Y-37350000D02*
X231840000Y-37350000D01*
D58*
X126730000Y-155290000D02*
X129840000Y-155290000D01*
X165550000Y-170910000D02*
X165550000Y-164380000D01*
D57*
X212640000Y-46147500D02*
X212640000Y-38230000D01*
D58*
X165550000Y-164380000D02*
X169180000Y-160750000D01*
D60*
X231840000Y-37350000D02*
X232230000Y-37740000D01*
D58*
X171910000Y-148550000D02*
X171730000Y-148730000D01*
D60*
X218360000Y-66280000D02*
X219270000Y-65370000D01*
D58*
X165550000Y-164380000D02*
X165550000Y-158700000D01*
D57*
X213520000Y-37350000D02*
X214950000Y-37350000D01*
D60*
X210980000Y-59930000D02*
X210980000Y-63120000D01*
D57*
X210387500Y-48400000D02*
X212640000Y-46147500D01*
D60*
X209980000Y-58930000D02*
X210980000Y-59930000D01*
X219270000Y-65370000D02*
X219270000Y-58550000D01*
D58*
X126410000Y-154970000D02*
X126410000Y-153720000D01*
X126850000Y-145660000D02*
X129810000Y-145660000D01*
D60*
X210387500Y-49667500D02*
X209980000Y-50075000D01*
D58*
X129675000Y-155250000D02*
X130180000Y-155755000D01*
X169180000Y-160750000D02*
X171730000Y-160750000D01*
X126410000Y-154970000D02*
X126730000Y-155290000D01*
X129840000Y-155290000D02*
X130610000Y-156060000D01*
D60*
X41920000Y-102030000D02*
X48710000Y-108820000D01*
X210980000Y-63120000D02*
X214140000Y-66280000D01*
D57*
X212640000Y-38230000D02*
X213520000Y-37350000D01*
D58*
X129810000Y-145660000D02*
X130540000Y-144930000D01*
X171730000Y-148730000D02*
X171730000Y-153130000D01*
X165060000Y-158210000D02*
X165060000Y-153880000D01*
D60*
X209980000Y-50075000D02*
X209980000Y-58930000D01*
D58*
X165550000Y-158700000D02*
X165060000Y-158210000D01*
D60*
X22900000Y-98110000D02*
X28320000Y-98110000D01*
X214140000Y-66280000D02*
X218360000Y-66280000D01*
D57*
%TO.N,CORRIENTE*%
X127440000Y-97610000D02*
X125800000Y-95970000D01*
X135010000Y-97610000D02*
X127440000Y-97610000D01*
X125800000Y-95970000D02*
X120210000Y-95970000D01*
X119440000Y-101100000D02*
X118680000Y-101860000D01*
X110830000Y-101860000D02*
X118680000Y-101860000D01*
X120210000Y-95970000D02*
X119440000Y-96740000D01*
X87540000Y-91990000D02*
X94570000Y-99020000D01*
X119440000Y-96740000D02*
X119440000Y-101100000D01*
X90530000Y-82090000D02*
X90490000Y-82050000D01*
X90530000Y-87780000D02*
X87540000Y-90770000D01*
X90530000Y-85370000D02*
X90530000Y-87780000D01*
X135010000Y-97610000D02*
X151000000Y-97610000D01*
X151000000Y-97610000D02*
X151690000Y-98300000D01*
X90530000Y-85370000D02*
X90530000Y-82090000D01*
X87540000Y-90770000D02*
X87540000Y-91990000D01*
X107990000Y-99020000D02*
X110830000Y-101860000D01*
X94570000Y-99020000D02*
X107990000Y-99020000D01*
D60*
%TO.N,GND1*%
X142230000Y-46390000D02*
X142340000Y-46280000D01*
X221420000Y-123090000D02*
X221550000Y-123220000D01*
X236020000Y-87040000D02*
X231540000Y-91520000D01*
D57*
X223920000Y-97540000D02*
X223920000Y-93370000D01*
X230989010Y-43320000D02*
X230999010Y-43310000D01*
D60*
X169730000Y-50850000D02*
X167710000Y-48830000D01*
D57*
X195420151Y-17620000D02*
X186370000Y-17620000D01*
X175700000Y-42000000D02*
X175700000Y-46990000D01*
D60*
X169730000Y-54300000D02*
X169730000Y-50850000D01*
D57*
X219510000Y-102180000D02*
X219510000Y-101950000D01*
D60*
X119780000Y-42460000D02*
X120280000Y-41960000D01*
D57*
X174160000Y-32107500D02*
X177147500Y-32107500D01*
D60*
X105480000Y-37940000D02*
X113120000Y-37940000D01*
D57*
X181880000Y-22110000D02*
X181880000Y-25360000D01*
X174160000Y-32107500D02*
X174160000Y-40460000D01*
X236020000Y-39860000D02*
X239380000Y-36500000D01*
X230999010Y-43310000D02*
X232570000Y-43310000D01*
D60*
X201270000Y-124402651D02*
X201460000Y-124592651D01*
D57*
X218327500Y-43320000D02*
X230989010Y-43320000D01*
X197250151Y-15790000D02*
X195420151Y-17620000D01*
X174160000Y-40460000D02*
X175700000Y-42000000D01*
D60*
X120280000Y-41050000D02*
X124520000Y-41050000D01*
X201270000Y-115662651D02*
X201270000Y-124402651D01*
D57*
X216530000Y-113020000D02*
X216530000Y-121750000D01*
D60*
X215190000Y-123090000D02*
X221420000Y-123090000D01*
X113120000Y-37940000D02*
X117640000Y-42460000D01*
D57*
X219510000Y-101950000D02*
X223920000Y-97540000D01*
D60*
X149010000Y-41170000D02*
X149010000Y-44860000D01*
X158450000Y-54300000D02*
X169730000Y-54300000D01*
D57*
X219510000Y-110040000D02*
X216530000Y-113020000D01*
X186370000Y-17620000D02*
X181880000Y-22110000D01*
D60*
X120280000Y-41960000D02*
X120280000Y-41050000D01*
X124520000Y-41050000D02*
X128320000Y-44850000D01*
D57*
X178020000Y-32980000D02*
X181880000Y-32980000D01*
D60*
X231540000Y-91520000D02*
X231540000Y-93370000D01*
X213687349Y-124592651D02*
X215190000Y-123090000D01*
X236020000Y-87040000D02*
X236020000Y-39860000D01*
X154940000Y-50790000D02*
X158450000Y-54300000D01*
D57*
X232910000Y-15790000D02*
X197250151Y-15790000D01*
X175700000Y-46990000D02*
X175330000Y-47360000D01*
X174160000Y-32107500D02*
X176700000Y-32107500D01*
X239380000Y-22260000D02*
X232910000Y-15790000D01*
D60*
X89045000Y-41190000D02*
X92930000Y-41190000D01*
X92930000Y-41190000D02*
X98230000Y-35890000D01*
X142340000Y-46280000D02*
X143900000Y-46280000D01*
D57*
X232570000Y-43310000D02*
X236020000Y-39860000D01*
D60*
X98230000Y-35890000D02*
X103430000Y-35890000D01*
X117640000Y-42460000D02*
X119780000Y-42460000D01*
D57*
X177147500Y-32107500D02*
X178020000Y-32980000D01*
D60*
X128320000Y-44850000D02*
X128320000Y-46390000D01*
D57*
X216530000Y-121750000D02*
X215190000Y-123090000D01*
X175330000Y-47360000D02*
X175330000Y-48830000D01*
D60*
X103430000Y-35890000D02*
X105480000Y-37940000D01*
X128320000Y-46390000D02*
X142230000Y-46390000D01*
X143900000Y-46280000D02*
X149010000Y-41170000D01*
X149010000Y-44860000D02*
X154940000Y-50790000D01*
D57*
X239380000Y-36500000D02*
X239380000Y-22260000D01*
X219510000Y-102180000D02*
X219510000Y-110040000D01*
D60*
X201460000Y-124592651D02*
X213687349Y-124592651D01*
%TO.N,Net-(CV1-Pad1)*%
X123050000Y-24060000D02*
X143550000Y-24060000D01*
X109980000Y-27940000D02*
X116960000Y-27940000D01*
X101370000Y-27940000D02*
X109980000Y-27940000D01*
X98230000Y-30890000D02*
X98420000Y-30890000D01*
X120220000Y-26200000D02*
X120910000Y-26200000D01*
X149010000Y-29520000D02*
X149010000Y-36170000D01*
X120910000Y-26200000D02*
X123050000Y-24060000D01*
X98420000Y-30890000D02*
X101370000Y-27940000D01*
X88765000Y-25610000D02*
X92950000Y-25610000D01*
X143550000Y-24060000D02*
X149010000Y-29520000D01*
X116960000Y-27940000D02*
X117720000Y-28700000D01*
X120220000Y-26200000D02*
X117720000Y-28700000D01*
X92950000Y-25610000D02*
X98230000Y-30890000D01*
D63*
%TO.N,Net-(CV4-Pad1)*%
X165110000Y-35040000D02*
X168042500Y-32107500D01*
X168042500Y-32107500D02*
X169080000Y-32107500D01*
X156310000Y-42650000D02*
X158810000Y-40150000D01*
X158810000Y-40150000D02*
X163920000Y-35040000D01*
X163920000Y-35040000D02*
X165110000Y-35040000D01*
%TO.N,Net-(CV4-Pad2)*%
X171260000Y-40040000D02*
X173410000Y-42190000D01*
X165110000Y-40040000D02*
X171260000Y-40040000D01*
D61*
X172270000Y-54300000D02*
X172270000Y-43330000D01*
D63*
X171620000Y-32107500D02*
X171620000Y-33530000D01*
D61*
X172270000Y-43330000D02*
X173410000Y-42190000D01*
D63*
X171620000Y-33530000D02*
X165110000Y-40040000D01*
D57*
%TO.N,Net-(CV5-Pad1)*%
X167382500Y-84797500D02*
X167382500Y-84090000D01*
X164390000Y-65390000D02*
X168330000Y-61450000D01*
X167382500Y-84090000D02*
X166610000Y-84090000D01*
X162190000Y-89990000D02*
X167382500Y-84797500D01*
X168330000Y-61450000D02*
X171150000Y-61450000D01*
X166610000Y-84090000D02*
X164390000Y-81870000D01*
X171150000Y-61450000D02*
X172270000Y-62570000D01*
X167382500Y-84090000D02*
X181090000Y-84090000D01*
X172270000Y-62570000D02*
X172270000Y-64460000D01*
X164390000Y-81870000D02*
X164390000Y-65390000D01*
X181090000Y-84090000D02*
X182970000Y-82210000D01*
%TO.N,Net-(CV5-Pad2)*%
X179010000Y-71180000D02*
X177100000Y-71180000D01*
X159460000Y-92240000D02*
X175480000Y-92240000D01*
X157190000Y-89990000D02*
X158590000Y-91390000D01*
X158610000Y-91390000D02*
X159460000Y-92240000D01*
X184860000Y-77030000D02*
X179010000Y-71180000D01*
D60*
X147880000Y-86810000D02*
X151060000Y-89990000D01*
D57*
X182970000Y-84750000D02*
X184860000Y-82860000D01*
X158590000Y-91390000D02*
X158610000Y-91390000D01*
X175480000Y-92240000D02*
X182970000Y-84750000D01*
X184860000Y-82860000D02*
X184860000Y-77030000D01*
D60*
X151060000Y-89990000D02*
X157190000Y-89990000D01*
D57*
%TO.N,VOLTAJE*%
X119680000Y-66740000D02*
X138780000Y-66740000D01*
X115930000Y-62990000D02*
X115930000Y-59970000D01*
X161860000Y-78122500D02*
X161842500Y-78140000D01*
X119680000Y-66740000D02*
X115930000Y-62990000D01*
X138780000Y-66740000D02*
X143220000Y-71180000D01*
X161860000Y-71180000D02*
X161860000Y-78122500D01*
X143220000Y-71180000D02*
X161860000Y-71180000D01*
%TO.N,Net-(CV10-Pad1)*%
X198090000Y-84590000D02*
X202730000Y-84590000D01*
X190910000Y-84750000D02*
X197930000Y-84750000D01*
X197930000Y-84750000D02*
X198090000Y-84590000D01*
X198090000Y-74660000D02*
X198090000Y-84590000D01*
X202730000Y-84590000D02*
X204450000Y-86310000D01*
X201350000Y-71400000D02*
X198090000Y-74660000D01*
D60*
%TO.N,Net-(CV10-Pad2)*%
X174510000Y-98300000D02*
X174530000Y-98280000D01*
D57*
X195790000Y-87290000D02*
X198090000Y-89590000D01*
D60*
X174530000Y-98280000D02*
X174900000Y-98280000D01*
X166930000Y-98300000D02*
X174510000Y-98300000D01*
X175180000Y-98560000D02*
X193870000Y-98560000D01*
D57*
X195220000Y-89590000D02*
X193870000Y-90940000D01*
D60*
X174900000Y-98280000D02*
X175180000Y-98560000D01*
D57*
X190910000Y-87290000D02*
X195790000Y-87290000D01*
X198090000Y-89590000D02*
X195220000Y-89590000D01*
D58*
%TO.N,+15VCC*%
X147010000Y-149340000D02*
X136100000Y-149340000D01*
X159710000Y-154150000D02*
X159980000Y-153880000D01*
X119140000Y-155250000D02*
X119140000Y-151700000D01*
X148690000Y-154150000D02*
X148690000Y-151020000D01*
X136100000Y-149340000D02*
X134590000Y-150850000D01*
X119990000Y-150850000D02*
X134590000Y-150850000D01*
D57*
X202730000Y-23280000D02*
X202730000Y-21050000D01*
D58*
X148690000Y-154150000D02*
X159710000Y-154150000D01*
X145330000Y-164770000D02*
X148690000Y-161410000D01*
X148690000Y-161410000D02*
X148690000Y-154150000D01*
D57*
X204000000Y-19780000D02*
X226150000Y-19780000D01*
D58*
X148690000Y-151020000D02*
X147010000Y-149340000D01*
D57*
X202730000Y-21050000D02*
X204000000Y-19780000D01*
X226150000Y-19780000D02*
X232230000Y-25860000D01*
D58*
X119140000Y-151700000D02*
X119990000Y-150850000D01*
D57*
%TO.N,-15VCC*%
X237320000Y-23270000D02*
X237480000Y-23270000D01*
D58*
X110790000Y-181210000D02*
X110790000Y-154970000D01*
D57*
X237480000Y-23270000D02*
X237480000Y-30970000D01*
X231850000Y-17800000D02*
X237320000Y-23270000D01*
X198200000Y-17800000D02*
X231850000Y-17800000D01*
D58*
X141960000Y-189530000D02*
X141140000Y-189530000D01*
D57*
X237480000Y-30970000D02*
X234670000Y-33780000D01*
D58*
X119190000Y-189610000D02*
X110790000Y-181210000D01*
X141140000Y-189530000D02*
X119270000Y-189530000D01*
D57*
X197230000Y-18770000D02*
X198200000Y-17800000D01*
D58*
X144450000Y-189530000D02*
X147910000Y-189530000D01*
X148980000Y-177360000D02*
X148980000Y-182510000D01*
D57*
X234670000Y-33780000D02*
X232230000Y-33780000D01*
D58*
X119270000Y-189530000D02*
X119190000Y-189610000D01*
D57*
X192730000Y-23280000D02*
X197230000Y-18780000D01*
X197230000Y-18780000D02*
X197230000Y-18770000D01*
D58*
X141140000Y-189530000D02*
X144450000Y-189530000D01*
X148980000Y-182510000D02*
X141960000Y-189530000D01*
%TO.N,GND4*%
X203660000Y-157220000D02*
X209650000Y-157220000D01*
X220550000Y-187970000D02*
X220550000Y-175850000D01*
X212890000Y-187050000D02*
X212890000Y-182660000D01*
X227340000Y-188730000D02*
X225840000Y-190230000D01*
X230500000Y-157730000D02*
X231130000Y-157730000D01*
D57*
X49890000Y-49600000D02*
X47740000Y-47450000D01*
X72480000Y-85280000D02*
X72480000Y-88080000D01*
X68310000Y-49600000D02*
X49890000Y-49600000D01*
D58*
X233535000Y-158035000D02*
X233535000Y-158225000D01*
X194625000Y-156505000D02*
X202945000Y-156505000D01*
X209650000Y-157220000D02*
X210905000Y-155965000D01*
X219260000Y-174560000D02*
X208810000Y-174560000D01*
X227340000Y-187265000D02*
X227340000Y-188730000D01*
X202945000Y-156505000D02*
X203660000Y-157220000D01*
D57*
X227130000Y-106670000D02*
X229850000Y-109390000D01*
D58*
X220510000Y-188890000D02*
X220510000Y-188010000D01*
X227690000Y-176320000D02*
X227690000Y-160540000D01*
D57*
X74370000Y-55660000D02*
X68310000Y-49600000D01*
X72480000Y-88080000D02*
X73500000Y-89100000D01*
D60*
X76580000Y-110790000D02*
X76580000Y-99880000D01*
D58*
X225840000Y-190230000D02*
X221850000Y-190230000D01*
X231130000Y-157730000D02*
X231625000Y-158225000D01*
X226040000Y-150540000D02*
X233535000Y-158035000D01*
D57*
X74370000Y-70630000D02*
X73490000Y-71510000D01*
X74370000Y-62400000D02*
X74370000Y-70630000D01*
D58*
X210905000Y-153245000D02*
X213610000Y-150540000D01*
D57*
X226830000Y-87440000D02*
X226830000Y-101880000D01*
X229850000Y-109390000D02*
X233970000Y-109390000D01*
D58*
X220510000Y-188010000D02*
X220550000Y-187970000D01*
X221850000Y-190230000D02*
X220510000Y-188890000D01*
D60*
X73980000Y-121010000D02*
X76580000Y-118410000D01*
D58*
X220550000Y-175850000D02*
X219260000Y-174560000D01*
X213610000Y-150540000D02*
X226040000Y-150540000D01*
X227340000Y-187265000D02*
X227340000Y-176670000D01*
X207400000Y-175970000D02*
X206200000Y-175970000D01*
D60*
X76580000Y-99880000D02*
X73350000Y-96650000D01*
D58*
X231625000Y-158225000D02*
X233535000Y-158225000D01*
D57*
X38600000Y-47830000D02*
X24810000Y-47830000D01*
D58*
X212890000Y-182660000D02*
X206200000Y-175970000D01*
D57*
X72480000Y-80140000D02*
X73490000Y-79130000D01*
D58*
X210905000Y-155965000D02*
X210905000Y-153245000D01*
X208810000Y-174560000D02*
X207400000Y-175970000D01*
D57*
X72480000Y-85280000D02*
X72480000Y-80140000D01*
D58*
X227340000Y-176670000D02*
X227690000Y-176320000D01*
D57*
X226830000Y-101880000D02*
X227130000Y-102180000D01*
D60*
X73970000Y-121010000D02*
X73980000Y-121010000D01*
D57*
X74370000Y-62400000D02*
X74370000Y-55660000D01*
X227130000Y-102180000D02*
X227130000Y-106670000D01*
X38980000Y-47450000D02*
X38600000Y-47830000D01*
X47740000Y-47450000D02*
X38980000Y-47450000D01*
D58*
X227690000Y-160540000D02*
X230500000Y-157730000D01*
D57*
%TO.N,+15VCC1*%
X54460000Y-84540000D02*
X51910000Y-84540000D01*
D58*
X229920000Y-189140000D02*
X226480000Y-192580000D01*
D57*
X44700000Y-84680000D02*
X44700000Y-81380000D01*
X39700000Y-86670000D02*
X40110000Y-86670000D01*
X44730000Y-73520000D02*
X44730000Y-73480000D01*
D58*
X234060000Y-181890000D02*
X233535000Y-181365000D01*
D61*
X54735000Y-114830000D02*
X48710000Y-120855000D01*
D57*
X55535000Y-87040000D02*
X55535000Y-85615000D01*
X55535000Y-85615000D02*
X54460000Y-84540000D01*
X36340000Y-52430000D02*
X37120000Y-51650000D01*
X42700000Y-86680000D02*
X44700000Y-84680000D01*
X27830000Y-58770000D02*
X24810000Y-55750000D01*
X48470000Y-73480000D02*
X51910000Y-76920000D01*
X40110000Y-86670000D02*
X40120000Y-86680000D01*
D58*
X226480000Y-192580000D02*
X212830000Y-192580000D01*
X210350000Y-187050000D02*
X210350000Y-185540000D01*
X229880000Y-186070000D02*
X234060000Y-181890000D01*
D61*
X54735000Y-113025000D02*
X53620000Y-111910000D01*
D57*
X45090000Y-60280000D02*
X47875000Y-63065000D01*
D61*
X48710000Y-120855000D02*
X48710000Y-121020000D01*
D57*
X47875000Y-63065000D02*
X52090000Y-63065000D01*
D58*
X229880000Y-189100000D02*
X229920000Y-189140000D01*
D57*
X38360000Y-85330000D02*
X39700000Y-86670000D01*
X50860000Y-89420000D02*
X50860000Y-101530000D01*
D58*
X210310000Y-187720000D02*
X210350000Y-187680000D01*
D57*
X52090000Y-63065000D02*
X55595000Y-59560000D01*
X38360000Y-83170000D02*
X38360000Y-85330000D01*
D61*
X48710000Y-121020000D02*
X48710000Y-126530000D01*
D57*
X36340000Y-58770000D02*
X27830000Y-58770000D01*
X37120000Y-51650000D02*
X41500000Y-51650000D01*
D58*
X229880000Y-187265000D02*
X229880000Y-186070000D01*
D57*
X50860000Y-89420000D02*
X53330000Y-89420000D01*
X40120000Y-86680000D02*
X42700000Y-86680000D01*
X48430000Y-73480000D02*
X50130000Y-73480000D01*
D58*
X210310000Y-190060000D02*
X210310000Y-187720000D01*
X210350000Y-185540000D02*
X203700000Y-178890000D01*
D57*
X43510000Y-74740000D02*
X44730000Y-73520000D01*
D61*
X54735000Y-114830000D02*
X54735000Y-113025000D01*
D57*
X36340000Y-58770000D02*
X36340000Y-52430000D01*
X45090000Y-55240000D02*
X45090000Y-60280000D01*
X36290000Y-78900000D02*
X36290000Y-81100000D01*
D58*
X203700000Y-178890000D02*
X203700000Y-175970000D01*
D57*
X41500000Y-51650000D02*
X45090000Y-55240000D01*
X36290000Y-78900000D02*
X36290000Y-84720000D01*
X39510000Y-89420000D02*
X50860000Y-89420000D01*
D58*
X233535000Y-181365000D02*
X233535000Y-166145000D01*
D57*
X44730000Y-73480000D02*
X48430000Y-73480000D01*
D61*
X48710000Y-126530000D02*
X47160000Y-128080000D01*
D58*
X229880000Y-187265000D02*
X229880000Y-189100000D01*
D57*
X53330000Y-89245000D02*
X55535000Y-87040000D01*
X52090000Y-71520000D02*
X52090000Y-63065000D01*
X50860000Y-101530000D02*
X53620000Y-104290000D01*
X48430000Y-73480000D02*
X48470000Y-73480000D01*
X36290000Y-84720000D02*
X35550000Y-85460000D01*
X50130000Y-73480000D02*
X52090000Y-71520000D01*
X43510000Y-80190000D02*
X43510000Y-74740000D01*
D58*
X212830000Y-192580000D02*
X210310000Y-190060000D01*
D57*
X44700000Y-81380000D02*
X43510000Y-80190000D01*
X36290000Y-81100000D02*
X38360000Y-83170000D01*
X35550000Y-85460000D02*
X39510000Y-89420000D01*
D58*
X210350000Y-187680000D02*
X210350000Y-187050000D01*
D57*
X53330000Y-89420000D02*
X53330000Y-89245000D01*
%TO.N,5V(uc)*%
X160280000Y-131080000D02*
X160280000Y-135190000D01*
X128970000Y-130190000D02*
X129120000Y-130190000D01*
D60*
X154640000Y-56820000D02*
X152200000Y-54380000D01*
D57*
X157460000Y-94750000D02*
X155290000Y-92580000D01*
D60*
X154700000Y-67770000D02*
X154700000Y-64500000D01*
D57*
X128620000Y-116380000D02*
X125900000Y-113660000D01*
X140150000Y-82934544D02*
X140150000Y-78020000D01*
D60*
X107090000Y-117230000D02*
X110660000Y-113660000D01*
D57*
X184140000Y-91330000D02*
X184140000Y-93140000D01*
D60*
X147620000Y-50140000D02*
X120400000Y-50140000D01*
D57*
X128620000Y-119610000D02*
X128620000Y-116380000D01*
X187300000Y-96300000D02*
X207810000Y-96300000D01*
X168840000Y-122520000D02*
X160280000Y-131080000D01*
D60*
X154700000Y-64500000D02*
X154640000Y-64440000D01*
D57*
X182970000Y-87290000D02*
X182970000Y-90160000D01*
X165770000Y-94750000D02*
X157460000Y-94750000D01*
D60*
X83755000Y-56585000D02*
X91355000Y-48985000D01*
D57*
X162550000Y-97960000D02*
X162550000Y-102370000D01*
D61*
X89790000Y-137720000D02*
X94570000Y-132940000D01*
D57*
X155290000Y-92580000D02*
X149795456Y-92580000D01*
X165770000Y-94750000D02*
X165760000Y-94750000D01*
D60*
X94570000Y-130580000D02*
X94570000Y-124900000D01*
D57*
X185750000Y-94750000D02*
X165770000Y-94750000D01*
D61*
X22810000Y-125270000D02*
X20060000Y-128020000D01*
D60*
X118660000Y-48400000D02*
X120400000Y-50140000D01*
D57*
X129120000Y-130190000D02*
X129610000Y-130680000D01*
X162550000Y-102370000D02*
X168840000Y-108660000D01*
D61*
X94570000Y-132940000D02*
X94570000Y-130580000D01*
D57*
X187300000Y-96300000D02*
X185750000Y-94750000D01*
D61*
X23970000Y-137720000D02*
X89790000Y-137720000D01*
D57*
X149795456Y-92580000D02*
X140150000Y-82934544D01*
D61*
X20060000Y-128020000D02*
X20060000Y-133810000D01*
D60*
X120400000Y-50140000D02*
X120280000Y-50260000D01*
D61*
X20060000Y-133810000D02*
X23970000Y-137720000D01*
D60*
X152200000Y-54380000D02*
X151860000Y-54380000D01*
D57*
X165760000Y-94750000D02*
X162550000Y-97960000D01*
X128970000Y-119960000D02*
X128620000Y-119610000D01*
D60*
X107090000Y-120140000D02*
X107090000Y-117230000D01*
D57*
X129610000Y-130680000D02*
X139160000Y-130680000D01*
X207810000Y-96300000D02*
X216670000Y-87440000D01*
X182970000Y-90160000D02*
X184140000Y-91330000D01*
D60*
X91355000Y-48400000D02*
X118660000Y-48400000D01*
X94570000Y-124900000D02*
X99530000Y-119940000D01*
X149075000Y-67770000D02*
X145827500Y-64522500D01*
X91355000Y-48985000D02*
X91355000Y-48400000D01*
D57*
X143670000Y-135190000D02*
X160280000Y-135190000D01*
D60*
X151860000Y-54380000D02*
X147620000Y-50140000D01*
X83780000Y-56610000D02*
X82910000Y-57480000D01*
D57*
X142780000Y-75390000D02*
X154700000Y-75390000D01*
D60*
X154700000Y-67770000D02*
X149075000Y-67770000D01*
X106890000Y-119940000D02*
X107090000Y-120140000D01*
D57*
X140150000Y-78020000D02*
X142780000Y-75390000D01*
X128970000Y-130190000D02*
X128970000Y-119960000D01*
X139160000Y-130680000D02*
X143670000Y-135190000D01*
X184140000Y-93140000D02*
X187300000Y-96300000D01*
D60*
X82910000Y-57480000D02*
X82910000Y-59970000D01*
X99530000Y-119940000D02*
X106890000Y-119940000D01*
D57*
X168840000Y-108660000D02*
X168840000Y-122520000D01*
D58*
%TO.N,Net-(U2-VI)*%
X214950000Y-186570000D02*
X215430000Y-187050000D01*
X201580000Y-159350000D02*
X203290000Y-159350000D01*
X203290000Y-159350000D02*
X203660000Y-159720000D01*
X214950000Y-177450000D02*
X214950000Y-186570000D01*
X201540000Y-159310000D02*
X201580000Y-159350000D01*
X210900000Y-169830000D02*
X214950000Y-169830000D01*
X189545000Y-161585000D02*
X191820000Y-159310000D01*
D60*
X191820000Y-159310000D02*
X201540000Y-159310000D01*
D58*
X203660000Y-159720000D02*
X203660000Y-162590000D01*
X203660000Y-162590000D02*
X210900000Y-169830000D01*
D60*
%TO.N,Net-(J1-Pin_3)*%
X37810000Y-27850000D02*
X40090000Y-25570000D01*
X43720000Y-25570000D02*
X43750000Y-25600000D01*
X40090000Y-25570000D02*
X43720000Y-25570000D01*
X30440000Y-27850000D02*
X37810000Y-27850000D01*
%TO.N,Net-(J1-Pin_1)*%
X43000000Y-41060000D02*
X43150000Y-41210000D01*
X30440000Y-35770000D02*
X33790000Y-35770000D01*
X33790000Y-35770000D02*
X39080000Y-41060000D01*
X39080000Y-41060000D02*
X43000000Y-41060000D01*
%TO.N,Net-(L1-Pad2)*%
X52790000Y-25570000D02*
X58245000Y-25570000D01*
X48750000Y-25600000D02*
X52760000Y-25600000D01*
X58245000Y-25570000D02*
X58285000Y-25610000D01*
X52760000Y-25600000D02*
X52790000Y-25570000D01*
%TO.N,Net-(L3-Pad2)*%
X48150000Y-41210000D02*
X51630000Y-41210000D01*
X58435000Y-41060000D02*
X58565000Y-41190000D01*
X51780000Y-41060000D02*
X58435000Y-41060000D01*
X51630000Y-41210000D02*
X51780000Y-41060000D01*
D58*
%TO.N,Net-(D1--)*%
X177980000Y-157950000D02*
X176195000Y-156165000D01*
X178260000Y-157950000D02*
X177980000Y-157950000D01*
X172040000Y-172000000D02*
X178260000Y-165780000D01*
D60*
X178260000Y-165780000D02*
X178260000Y-157950000D01*
D58*
X172040000Y-187490000D02*
X172040000Y-172000000D01*
D57*
%TO.N,Net-(J12-Pin_3)*%
X229370000Y-87440000D02*
X229370000Y-101880000D01*
D58*
X225190000Y-162330000D02*
X218825000Y-155965000D01*
X224800000Y-176710000D02*
X225190000Y-176320000D01*
D57*
X238650000Y-106560000D02*
X238650000Y-107060000D01*
D58*
X224800000Y-187265000D02*
X224800000Y-176710000D01*
X225190000Y-176320000D02*
X225190000Y-162330000D01*
D57*
X229370000Y-101880000D02*
X229670000Y-102180000D01*
X238580000Y-107130000D02*
X238580000Y-115360000D01*
X236630000Y-117310000D02*
X233970000Y-117310000D01*
X229670000Y-102180000D02*
X234270000Y-102180000D01*
X234270000Y-102180000D02*
X238650000Y-106560000D01*
X238650000Y-107060000D02*
X238580000Y-107130000D01*
X238580000Y-115360000D02*
X236630000Y-117310000D01*
D58*
%TO.N,Net-(D1-+)*%
X179960000Y-187490000D02*
X179960000Y-162560000D01*
X179960000Y-162560000D02*
X181275000Y-161245000D01*
%TO.N,Net-(D2-+)*%
X195070000Y-162030000D02*
X194625000Y-161585000D01*
X195070000Y-187295000D02*
X195070000Y-162030000D01*
%TO.N,Net-(D2--)*%
X187150000Y-187295000D02*
X187150000Y-158900000D01*
X187150000Y-158900000D02*
X189545000Y-156505000D01*
D63*
%TO.N,Net-(Q1-B)*%
X158810000Y-46920000D02*
X157480000Y-48250000D01*
X158810000Y-45150000D02*
X158810000Y-46920000D01*
D57*
%TO.N,Net-(Q1-E)*%
X177350000Y-57200000D02*
X176060000Y-58490000D01*
X176060000Y-58490000D02*
X163450000Y-58490000D01*
X177350000Y-54300000D02*
X177350000Y-57200000D01*
X160100000Y-50870000D02*
X160020000Y-50790000D01*
X163450000Y-50870000D02*
X160100000Y-50870000D01*
%TO.N,Net-(Q2-B)*%
X230380000Y-60200000D02*
X230380000Y-61150000D01*
X230380000Y-61150000D02*
X227320000Y-64210000D01*
%TO.N,Net-(Q2-E)*%
X220930000Y-76520000D02*
X220890000Y-76480000D01*
X229860000Y-68000000D02*
X221340000Y-76520000D01*
X220890000Y-76480000D02*
X211510000Y-76480000D01*
X221340000Y-76520000D02*
X220930000Y-76520000D01*
X229860000Y-66750000D02*
X229860000Y-68000000D01*
%TO.N,Net-(RC17-Pad2)*%
X203570000Y-47597500D02*
X210387500Y-40780000D01*
X203570000Y-49930000D02*
X203570000Y-47597500D01*
%TO.N,se\u00F1al HALL*%
X197730000Y-23280000D02*
X197730000Y-28850000D01*
X209370000Y-34690000D02*
X210210000Y-33850000D01*
X197730000Y-28850000D02*
X203570000Y-34690000D01*
X203570000Y-34690000D02*
X209370000Y-34690000D01*
%TO.N,Net-(RC18-Pad1)*%
X226320000Y-48020000D02*
X223820000Y-50520000D01*
X223820000Y-50520000D02*
X223820000Y-53250000D01*
X223820000Y-53250000D02*
X222780000Y-54290000D01*
%TO.N,Net-(RC19-Pad1)*%
X210387500Y-45860000D02*
X209680000Y-45860000D01*
X209680000Y-45860000D02*
X207540000Y-48000000D01*
X207540000Y-48000000D02*
X207540000Y-54290000D01*
X210387500Y-43320000D02*
X210387500Y-45860000D01*
%TO.N,Net-(RC20-Pad1)*%
X211510000Y-73940000D02*
X219120000Y-73940000D01*
X219120000Y-73940000D02*
X219270000Y-73790000D01*
%TO.N,VCC1*%
X209390000Y-78820000D02*
X209390000Y-63860000D01*
X213020000Y-102180000D02*
X207010000Y-108190000D01*
X219260000Y-80190000D02*
X210750000Y-80190000D01*
X216970000Y-95450000D02*
X223035000Y-89385000D01*
X182810000Y-29840000D02*
X190760000Y-37790000D01*
D60*
X197352651Y-126342651D02*
X198860000Y-127850000D01*
X193050000Y-126342651D02*
X197352651Y-126342651D01*
D57*
X224320000Y-89385000D02*
X224320000Y-83830000D01*
X172950000Y-29840000D02*
X182810000Y-29840000D01*
X191860000Y-107770000D02*
X189780000Y-109850000D01*
X190760000Y-45230000D02*
X209390000Y-63860000D01*
X216970000Y-102180000D02*
X216970000Y-95450000D01*
X224320000Y-83830000D02*
X220680000Y-80190000D01*
X189780000Y-121920000D02*
X193050000Y-125190000D01*
D60*
X215190000Y-128090000D02*
X221420000Y-128090000D01*
D57*
X192860000Y-108190000D02*
X192440000Y-107770000D01*
X193050000Y-125190000D02*
X193050000Y-126342651D01*
X210750000Y-80180000D02*
X209390000Y-78820000D01*
X216970000Y-102180000D02*
X213020000Y-102180000D01*
D60*
X201460000Y-127092651D02*
X200887349Y-127092651D01*
D57*
X189780000Y-109850000D02*
X189780000Y-121920000D01*
X207010000Y-108190000D02*
X192860000Y-108190000D01*
X190760000Y-37790000D02*
X190760000Y-42190000D01*
D60*
X214950000Y-127850000D02*
X215190000Y-128090000D01*
X198860000Y-127850000D02*
X200130000Y-127850000D01*
D57*
X192440000Y-107770000D02*
X191860000Y-107770000D01*
X169080000Y-24167500D02*
X169080000Y-25970000D01*
X210750000Y-80190000D02*
X210750000Y-80180000D01*
D60*
X200130000Y-127850000D02*
X209340000Y-127850000D01*
X200887349Y-127092651D02*
X200130000Y-127850000D01*
D57*
X220680000Y-80190000D02*
X219260000Y-80190000D01*
X223035000Y-89385000D02*
X224320000Y-89385000D01*
X190760000Y-42190000D02*
X190760000Y-45230000D01*
D60*
X209340000Y-127850000D02*
X214950000Y-127850000D01*
D57*
X169080000Y-25970000D02*
X172950000Y-29840000D01*
D60*
X221420000Y-128090000D02*
X221550000Y-128220000D01*
%TO.N,Net-(CV3-Pad1)*%
X120220000Y-31200000D02*
X120220000Y-35990000D01*
X120220000Y-31200000D02*
X142180000Y-31200000D01*
X120220000Y-35990000D02*
X120280000Y-36050000D01*
X142180000Y-31200000D02*
X142340000Y-31040000D01*
D63*
%TO.N,Net-(RV5-Pad2)*%
X158790000Y-24060000D02*
X161100000Y-21750000D01*
X161100000Y-21750000D02*
X174282500Y-21750000D01*
X174282500Y-21750000D02*
X176700000Y-24167500D01*
D61*
%TO.N,Net-(RV6-Pad1)*%
X178410000Y-42190000D02*
X183000000Y-42190000D01*
X184910000Y-42170000D02*
X186010000Y-42170000D01*
X183000000Y-42190000D02*
X183030000Y-42220000D01*
X186010000Y-42170000D02*
X186130000Y-42290000D01*
X184890000Y-42190000D02*
X184910000Y-42170000D01*
X183000000Y-42190000D02*
X184890000Y-42190000D01*
X175910000Y-39690000D02*
X178410000Y-42190000D01*
D63*
%TO.N,Net-(RV7-Pad1)*%
X174160000Y-24167500D02*
X176972500Y-26980000D01*
X183100000Y-27050000D02*
X186130000Y-27050000D01*
X183030000Y-26980000D02*
X183100000Y-27050000D01*
X176972500Y-26980000D02*
X183030000Y-26980000D01*
X171620000Y-24167500D02*
X174160000Y-24167500D01*
D57*
%TO.N,Net-(RV12-Pad1)*%
X175730000Y-52020000D02*
X185350000Y-52020000D01*
X174810000Y-54300000D02*
X174810000Y-52940000D01*
X185350000Y-52020000D02*
X190760000Y-57430000D01*
X174810000Y-52940000D02*
X175730000Y-52020000D01*
%TO.N,Net-(RV13-Pad2)*%
X152142500Y-84090000D02*
X150160000Y-84090000D01*
X150160000Y-84090000D02*
X147880000Y-81810000D01*
X147880000Y-81810000D02*
X145380000Y-84310000D01*
%TO.N,Net-(D3-A)*%
X47280000Y-51650000D02*
X47280000Y-57710000D01*
X69290000Y-62400000D02*
X69290000Y-56070000D01*
X64870000Y-51650000D02*
X47280000Y-51650000D01*
X47280000Y-57710000D02*
X48340000Y-58770000D01*
X69290000Y-56070000D02*
X64870000Y-51650000D01*
D61*
%TO.N,Net-(D4-A)*%
X36710000Y-121020000D02*
X36710000Y-127790000D01*
X70140000Y-122260000D02*
X68890000Y-121010000D01*
X66200000Y-111560000D02*
X71590000Y-111560000D01*
X59060000Y-118700000D02*
X66200000Y-111560000D01*
X72160000Y-124360000D02*
X70140000Y-122340000D01*
X71590000Y-111560000D02*
X75370000Y-115340000D01*
X78710000Y-117200000D02*
X78710000Y-119760000D01*
X48960000Y-131910000D02*
X51070000Y-129800000D01*
X51070000Y-129800000D02*
X51070000Y-121590000D01*
X76850000Y-115340000D02*
X78710000Y-117200000D01*
X78710000Y-119760000D02*
X74110000Y-124360000D01*
X74110000Y-124360000D02*
X72160000Y-124360000D01*
X70140000Y-122340000D02*
X70140000Y-122260000D01*
X53960000Y-118700000D02*
X59060000Y-118700000D01*
X75370000Y-115340000D02*
X76850000Y-115340000D01*
X40830000Y-131910000D02*
X48960000Y-131910000D01*
X36710000Y-127790000D02*
X37000000Y-128080000D01*
X37000000Y-128080000D02*
X40830000Y-131910000D01*
X51070000Y-121590000D02*
X53960000Y-118700000D01*
D57*
%TO.N,TX2*%
X103190000Y-85330000D02*
X103230000Y-85370000D01*
D61*
X116970000Y-98300000D02*
X116970000Y-99540000D01*
X114300000Y-95630000D02*
X116970000Y-98300000D01*
X103230000Y-88000000D02*
X99470000Y-91760000D01*
X96330000Y-91760000D02*
X95620000Y-92470000D01*
X95620000Y-92470000D02*
X95620000Y-94160000D01*
D57*
X116970000Y-127190000D02*
X113970000Y-130190000D01*
X103190000Y-82050000D02*
X103190000Y-85330000D01*
D61*
X99470000Y-91760000D02*
X96330000Y-91760000D01*
X97090000Y-95630000D02*
X114300000Y-95630000D01*
X103230000Y-85370000D02*
X103230000Y-88000000D01*
D57*
X116970000Y-107160000D02*
X116970000Y-127190000D01*
D61*
X95620000Y-94160000D02*
X97090000Y-95630000D01*
D57*
%TO.N,Net-(J20-Pin_17)*%
X87950000Y-85330000D02*
X87990000Y-85370000D01*
X87950000Y-82050000D02*
X87950000Y-85330000D01*
%TO.N,Net-(D5-A)*%
X46450000Y-78900000D02*
X46920000Y-78430000D01*
X46450000Y-78900000D02*
X46450000Y-80930000D01*
X66240000Y-78430000D02*
X67400000Y-79590000D01*
X67400000Y-79590000D02*
X67400000Y-85280000D01*
X46450000Y-84360000D02*
X47550000Y-85460000D01*
X46920000Y-78430000D02*
X66240000Y-78430000D01*
X46450000Y-80930000D02*
X46450000Y-84360000D01*
D61*
%TO.N,RX2*%
X94390000Y-91940000D02*
X94390000Y-94500000D01*
X100690000Y-85370000D02*
X100690000Y-88050000D01*
X96750000Y-96860000D02*
X111330000Y-96860000D01*
D57*
X100650000Y-82050000D02*
X100650000Y-85330000D01*
D61*
X94390000Y-94500000D02*
X96750000Y-96860000D01*
D57*
X112270000Y-107010000D02*
X112270000Y-126890000D01*
D61*
X100690000Y-88050000D02*
X98490000Y-90250000D01*
X95950000Y-90380000D02*
X94390000Y-91940000D01*
X112270000Y-97800000D02*
X112270000Y-99390000D01*
D57*
X112270000Y-126890000D02*
X108970000Y-130190000D01*
D61*
X111330000Y-96860000D02*
X112270000Y-97800000D01*
X98490000Y-90250000D02*
X98360000Y-90380000D01*
X98360000Y-90380000D02*
X95950000Y-90380000D01*
D57*
X100650000Y-85330000D02*
X100690000Y-85370000D01*
D61*
%TO.N,5*%
X105100000Y-58100000D02*
X108270000Y-58100000D01*
X110540000Y-55670000D02*
X110540000Y-54060000D01*
X110620000Y-55750000D02*
X110540000Y-55670000D01*
X108270000Y-58100000D02*
X110620000Y-55750000D01*
X103230000Y-59970000D02*
X105100000Y-58100000D01*
D60*
%TO.N,Net-(D6-A)*%
X209340000Y-112610000D02*
X213580000Y-112610000D01*
X213580000Y-112610000D02*
X213990000Y-113020000D01*
D57*
%TO.N,B*%
X143860000Y-119610000D02*
X143860000Y-116300000D01*
X144160000Y-130680000D02*
X144160000Y-119910000D01*
X144160000Y-119910000D02*
X143860000Y-119610000D01*
X143860000Y-116300000D02*
X146680000Y-113480000D01*
%TO.N,A*%
X159860000Y-119980000D02*
X164280000Y-119980000D01*
X166500000Y-113620000D02*
X166500000Y-117760000D01*
X149160000Y-130680000D02*
X159860000Y-119980000D01*
X166500000Y-117760000D02*
X164280000Y-119980000D01*
D61*
%TO.N,7*%
X104810000Y-55970000D02*
X105580000Y-55200000D01*
X105460000Y-55080000D02*
X105460000Y-54060000D01*
X98150000Y-59970000D02*
X102150000Y-55970000D01*
X105580000Y-55200000D02*
X105460000Y-55080000D01*
X102150000Y-55970000D02*
X104810000Y-55970000D01*
D57*
%TO.N,Net-(J20-Pin_9)*%
X108270000Y-85330000D02*
X108310000Y-85370000D01*
X108270000Y-82050000D02*
X108270000Y-85330000D01*
%TO.N,Net-(J20-Pin_2)*%
X126090000Y-82090000D02*
X126050000Y-82050000D01*
X126090000Y-85370000D02*
X126090000Y-82090000D01*
D61*
%TO.N,6*%
X107140000Y-56940000D02*
X108000000Y-56080000D01*
X103720000Y-56940000D02*
X107140000Y-56940000D01*
X100690000Y-59970000D02*
X103720000Y-56940000D01*
X108000000Y-56080000D02*
X108000000Y-54060000D01*
D57*
%TO.N,Net-(J20-Pin_19)*%
X82870000Y-85330000D02*
X82910000Y-85370000D01*
X82870000Y-82050000D02*
X82870000Y-85330000D01*
D61*
%TO.N,2*%
X118160000Y-57120000D02*
X121010000Y-59970000D01*
X118160000Y-54060000D02*
X118160000Y-57120000D01*
D57*
%TO.N,NC1*%
X44790000Y-67420000D02*
X48390000Y-71020000D01*
X25200000Y-67420000D02*
X44790000Y-67420000D01*
%TO.N,NA1*%
X25610000Y-70970000D02*
X25200000Y-71380000D01*
X36340000Y-70970000D02*
X25610000Y-70970000D01*
%TO.N,NC3*%
X43610000Y-97710000D02*
X47600000Y-97710000D01*
X25200000Y-79300000D02*
X43610000Y-97710000D01*
D61*
%TO.N,8*%
X101910000Y-51610000D02*
X94850000Y-51610000D01*
X94850000Y-51610000D02*
X93070000Y-53390000D01*
X93070000Y-53390000D02*
X93070000Y-59970000D01*
X102920000Y-54060000D02*
X102920000Y-52620000D01*
X102920000Y-52620000D02*
X101910000Y-51610000D01*
D57*
%TO.N,C1*%
X25200000Y-63460000D02*
X35750000Y-63460000D01*
X35750000Y-63460000D02*
X42390000Y-56820000D01*
%TO.N,Net-(J20-Pin_10)*%
X105730000Y-82050000D02*
X105730000Y-85330000D01*
X105730000Y-85330000D02*
X105770000Y-85370000D01*
D61*
%TO.N,1*%
X120700000Y-54060000D02*
X120700000Y-55130000D01*
X120700000Y-55130000D02*
X123550000Y-57980000D01*
X123550000Y-57980000D02*
X123550000Y-59970000D01*
D57*
%TO.N,Net-(J20-Pin_8)*%
X110810000Y-82050000D02*
X110810000Y-85330000D01*
X110810000Y-85330000D02*
X110850000Y-85370000D01*
%TO.N,NA3*%
X35550000Y-93610000D02*
X25200000Y-83260000D01*
X35550000Y-97660000D02*
X35550000Y-93610000D01*
%TO.N,Net-(J20-Pin_18)*%
X85410000Y-82050000D02*
X85410000Y-85330000D01*
X85410000Y-85330000D02*
X85450000Y-85370000D01*
D61*
%TO.N,3*%
X115620000Y-54060000D02*
X115620000Y-57740000D01*
X115620000Y-57740000D02*
X113390000Y-59970000D01*
%TO.N,4*%
X113080000Y-57740000D02*
X110850000Y-59970000D01*
X113080000Y-54060000D02*
X113080000Y-57740000D01*
D57*
%TO.N,C3*%
X25200000Y-75340000D02*
X39800000Y-75340000D01*
X41600000Y-77140000D02*
X41600000Y-83510000D01*
X39800000Y-75340000D02*
X41600000Y-77140000D01*
D61*
%TO.N,C2*%
X22810000Y-110270000D02*
X29960000Y-110270000D01*
X29960000Y-110270000D02*
X42660000Y-122970000D01*
D57*
%TO.N,SCL*%
X107070000Y-93860000D02*
X125040000Y-93860000D01*
X123670000Y-87020000D02*
X123550000Y-86900000D01*
X123510000Y-85330000D02*
X123550000Y-85370000D01*
D60*
X89570000Y-122420000D02*
X107090000Y-104900000D01*
X107180000Y-104810000D02*
X107090000Y-104900000D01*
D57*
X124450000Y-87020000D02*
X123670000Y-87020000D01*
D60*
X107180000Y-101460000D02*
X107180000Y-104810000D01*
X89570000Y-130580000D02*
X89570000Y-122420000D01*
D61*
X84120000Y-136500000D02*
X28210000Y-136500000D01*
D57*
X127630000Y-91270000D02*
X127630000Y-90200000D01*
X123550000Y-86900000D02*
X123550000Y-85370000D01*
D61*
X84960000Y-135660000D02*
X84120000Y-136500000D01*
D57*
X125040000Y-93860000D02*
X127630000Y-91270000D01*
X123510000Y-82050000D02*
X123510000Y-85330000D01*
D61*
X28210000Y-136500000D02*
X22810000Y-131100000D01*
X89570000Y-130580000D02*
X84960000Y-135190000D01*
X84960000Y-135190000D02*
X84960000Y-135660000D01*
X22810000Y-131100000D02*
X22810000Y-130270000D01*
D57*
X127630000Y-90200000D02*
X124450000Y-87020000D01*
%TO.N,SDA*%
X115890000Y-82050000D02*
X115890000Y-85330000D01*
D61*
X66670000Y-109410000D02*
X67650000Y-110390000D01*
X79575000Y-112530000D02*
X83800000Y-116755000D01*
D60*
X84570000Y-130580000D02*
X84570000Y-119660000D01*
D57*
X99820000Y-93730000D02*
X102760000Y-93730000D01*
D61*
X83800000Y-116755000D02*
X87475000Y-116755000D01*
D60*
X99800000Y-104430000D02*
X99530000Y-104700000D01*
D61*
X67650000Y-110390000D02*
X72720000Y-110390000D01*
D57*
X105740000Y-90750000D02*
X110550000Y-90750000D01*
D60*
X84570000Y-119660000D02*
X87475000Y-116755000D01*
X99800000Y-101320000D02*
X99800000Y-104430000D01*
D61*
X62180000Y-105850000D02*
X64390000Y-105850000D01*
X35540000Y-111920000D02*
X49780000Y-111920000D01*
X49780000Y-111920000D02*
X52580000Y-109120000D01*
D57*
X102760000Y-93730000D02*
X105740000Y-90750000D01*
D61*
X66670000Y-108130000D02*
X66670000Y-109410000D01*
D60*
X87475000Y-116755000D02*
X99530000Y-104700000D01*
D61*
X74640000Y-112530000D02*
X79575000Y-112530000D01*
X64390000Y-105850000D02*
X66670000Y-108130000D01*
X28890000Y-105270000D02*
X35540000Y-111920000D01*
D57*
X115890000Y-85330000D02*
X115930000Y-85370000D01*
D61*
X72720000Y-110390000D02*
X72720000Y-110610000D01*
X72720000Y-110610000D02*
X74640000Y-112530000D01*
X58910000Y-109120000D02*
X62180000Y-105850000D01*
X22810000Y-105270000D02*
X28890000Y-105270000D01*
X52580000Y-109120000D02*
X58910000Y-109120000D01*
D57*
X110550000Y-90750000D02*
X115930000Y-85370000D01*
D61*
X27810000Y-105270000D02*
X22810000Y-105270000D01*
D60*
%TO.N,temp*%
X138670000Y-63580000D02*
X142727500Y-59522500D01*
X118470000Y-59970000D02*
X122080000Y-63580000D01*
X122080000Y-63580000D02*
X138670000Y-63580000D01*
X142727500Y-59522500D02*
X145827500Y-59522500D01*
D57*
%TO.N,3V3*%
X137850000Y-89500000D02*
X137850000Y-94460000D01*
X163960000Y-114840000D02*
X163960000Y-111080000D01*
X142490000Y-106720000D02*
X139140000Y-103370000D01*
X144140000Y-110940000D02*
X144140000Y-107840000D01*
X153000000Y-116340000D02*
X153450000Y-116340000D01*
X147430000Y-110940000D02*
X151460000Y-114970000D01*
X128630000Y-59970000D02*
X136630000Y-59970000D01*
X151630000Y-114970000D02*
X153000000Y-116340000D01*
X153500000Y-116390000D02*
X162600000Y-116390000D01*
X143020000Y-106720000D02*
X142490000Y-106720000D01*
X163960000Y-115030000D02*
X164150000Y-115030000D01*
X163960000Y-108230000D02*
X162680000Y-106950000D01*
X136630000Y-59970000D02*
X137900000Y-61240000D01*
X153450000Y-116340000D02*
X153500000Y-116390000D01*
X151460000Y-114970000D02*
X151630000Y-114970000D01*
X137900000Y-81830000D02*
X137850000Y-81880000D01*
X144140000Y-110940000D02*
X147430000Y-110940000D01*
X163960000Y-111080000D02*
X163960000Y-108230000D01*
X137900000Y-68860000D02*
X137900000Y-81830000D01*
X162600000Y-116390000D02*
X163960000Y-115030000D01*
X137850000Y-94460000D02*
X139140000Y-95750000D01*
X164150000Y-115030000D02*
X163960000Y-114840000D01*
X144140000Y-107840000D02*
X143020000Y-106720000D01*
%TO.N,b*%
X147010000Y-96210000D02*
X153490000Y-96210000D01*
X154930000Y-98150000D02*
X152685000Y-100395000D01*
X135620000Y-103310000D02*
X132210000Y-106720000D01*
X154930000Y-97650000D02*
X154930000Y-98150000D01*
X135915000Y-100590000D02*
X152490000Y-100590000D01*
X153490000Y-96210000D02*
X154930000Y-97650000D01*
X105770000Y-59970000D02*
X122120000Y-76320000D01*
X152490000Y-100590000D02*
X152685000Y-100395000D01*
X127780000Y-106720000D02*
X134840000Y-106720000D01*
X135620000Y-103310000D02*
X135620000Y-100885000D01*
X122120000Y-76320000D02*
X127120000Y-76320000D01*
X132210000Y-106720000D02*
X127780000Y-106720000D01*
X134840000Y-106720000D02*
X141600000Y-113480000D01*
X127120000Y-76320000D02*
X147010000Y-96210000D01*
X135620000Y-100885000D02*
X135915000Y-100590000D01*
%TO.N,a*%
X150200000Y-106950000D02*
X147440000Y-106950000D01*
X155620000Y-101530000D02*
X150200000Y-106950000D01*
X154500000Y-94310000D02*
X157620000Y-97430000D01*
X122220000Y-73880000D02*
X127350000Y-73880000D01*
X147780000Y-94310000D02*
X154500000Y-94310000D01*
X127350000Y-73880000D02*
X147780000Y-94310000D01*
X157620000Y-97430000D02*
X157620000Y-99470000D01*
X161420000Y-113620000D02*
X154110000Y-113620000D01*
X154110000Y-113620000D02*
X147440000Y-106950000D01*
X155620000Y-101470000D02*
X155620000Y-101530000D01*
X157620000Y-99470000D02*
X155620000Y-101470000D01*
X108310000Y-59970000D02*
X122220000Y-73880000D01*
%TO.N,Net-(Q5-B)*%
X71830000Y-63920000D02*
X71830000Y-59860000D01*
X65180000Y-70570000D02*
X71830000Y-63920000D01*
X63730000Y-70570000D02*
X65180000Y-70570000D01*
%TO.N,Net-(Q6-B)*%
X71430000Y-118470000D02*
X68360000Y-118470000D01*
X68360000Y-118470000D02*
X63430000Y-123400000D01*
%TO.N,Net-(Q7-B)*%
X63670000Y-96250000D02*
X69940000Y-89980000D01*
X69940000Y-89980000D02*
X69940000Y-82740000D01*
%TO.N,Net-(RC1-Pad1)*%
X55595000Y-74685000D02*
X54810000Y-75470000D01*
X55595000Y-67180000D02*
X55595000Y-74685000D01*
%TO.N,IO2*%
X93030000Y-82050000D02*
X93030000Y-85330000D01*
X76040000Y-79120000D02*
X91730000Y-79120000D01*
X93030000Y-80520000D02*
X93030000Y-82050000D01*
X93030000Y-85330000D02*
X93070000Y-85370000D01*
X91730000Y-79120000D02*
X93080000Y-80470000D01*
X93070000Y-86160000D02*
X93070000Y-85370000D01*
X93080000Y-80470000D02*
X93030000Y-80520000D01*
X72390000Y-75470000D02*
X70050000Y-75470000D01*
X72390000Y-75470000D02*
X76040000Y-79120000D01*
%TO.N,Net-(RC2-Pad2)*%
X59500000Y-59560000D02*
X63730000Y-55330000D01*
X58135000Y-59560000D02*
X59500000Y-59560000D01*
D61*
%TO.N,gas_heater*%
X90510000Y-91550000D02*
X95610000Y-86450000D01*
X82140000Y-112210000D02*
X82140000Y-107540000D01*
D64*
X73780000Y-128190000D02*
X82140000Y-119830000D01*
X70020000Y-128190000D02*
X73780000Y-128190000D01*
D61*
X82140000Y-107540000D02*
X90510000Y-99170000D01*
D57*
X95570000Y-85330000D02*
X95610000Y-85370000D01*
D61*
X95610000Y-86450000D02*
X95610000Y-85370000D01*
D57*
X95570000Y-82050000D02*
X95570000Y-85330000D01*
%TO.N,Net-(RC3-Pad1)*%
X54735000Y-122450000D02*
X54735000Y-128145000D01*
X54735000Y-128145000D02*
X54780000Y-128190000D01*
D61*
%TO.N,Net-(RC4-Pad2)*%
X57275000Y-114830000D02*
X63430000Y-108675000D01*
X63430000Y-108675000D02*
X63430000Y-108160000D01*
D57*
%TO.N,Net-(RC5-Pad1)*%
X55535000Y-99865000D02*
X54990000Y-100410000D01*
X55535000Y-94660000D02*
X55535000Y-99865000D01*
%TO.N,Net-(RC6-Pad2)*%
X63670000Y-81445000D02*
X63670000Y-81010000D01*
X58075000Y-87040000D02*
X63670000Y-81445000D01*
D61*
%TO.N,Net-(RV17-Pad1)*%
X196968674Y-111361326D02*
X200000000Y-114392651D01*
X201730000Y-112050000D02*
X197657348Y-112050000D01*
X202540000Y-112860000D02*
X201730000Y-112050000D01*
X193050000Y-111102651D02*
X196710000Y-111102651D01*
X196710000Y-111102651D02*
X196968674Y-111361326D01*
X202540000Y-114392651D02*
X202540000Y-112860000D01*
X197657348Y-112050000D02*
X196968674Y-111361326D01*
D57*
%TO.N,RX*%
X118470000Y-85370000D02*
X118470000Y-87710000D01*
X118470000Y-87710000D02*
X121000000Y-90240000D01*
X121000000Y-128160000D02*
X118970000Y-130190000D01*
X121000000Y-97860000D02*
X121000000Y-128160000D01*
X118430000Y-82050000D02*
X118430000Y-85330000D01*
X118430000Y-85330000D02*
X118470000Y-85370000D01*
%TO.N,TX*%
X120970000Y-85330000D02*
X121010000Y-85370000D01*
X120970000Y-82050000D02*
X120970000Y-85330000D01*
X121010000Y-85370000D02*
X121010000Y-86960000D01*
X124310000Y-129850000D02*
X123970000Y-130190000D01*
X124310000Y-97880000D02*
X124310000Y-129850000D01*
X121010000Y-86960000D02*
X124310000Y-90260000D01*
%TO.N,IO4*%
X98110000Y-85330000D02*
X98150000Y-85370000D01*
X98110000Y-82050000D02*
X98110000Y-85330000D01*
D60*
%TO.N,Net-(RC21-Pad2)*%
X177030000Y-100780000D02*
X188270000Y-100780000D01*
X188270000Y-100780000D02*
X189040000Y-101550000D01*
X174530000Y-103280000D02*
X177030000Y-100780000D01*
X189040000Y-101550000D02*
X204450000Y-101550000D01*
%TD*%
M02*
