%TF.GenerationSoftware,KiCad,Pcbnew,8.0.3*%
%TF.CreationDate,2024-10-09T15:47:07-03:00*%
%TF.ProjectId,mod_sensado_Prototipo_270624,6d6f645f-7365-46e7-9361-646f5f50726f,rev?*%
%TF.SameCoordinates,Original*%
%TF.FileFunction,Legend,Bot*%
%TF.FilePolarity,Positive*%
%FSLAX46Y46*%
G04 Gerber Fmt 4.6, Leading zero omitted, Abs format (unit mm)*
G04 Created by KiCad (PCBNEW 8.0.3) date 2024-10-09 15:47:07*
%MOMM*%
%LPD*%
G01*
G04 APERTURE LIST*
%ADD10C,0.150000*%
%ADD11C,0.120000*%
G04 APERTURE END LIST*
D10*
X46416666Y-29654819D02*
X46892856Y-29654819D01*
X46892856Y-29654819D02*
X46892856Y-28654819D01*
X45559523Y-29654819D02*
X46130951Y-29654819D01*
X45845237Y-29654819D02*
X45845237Y-28654819D01*
X45845237Y-28654819D02*
X45940475Y-28797676D01*
X45940475Y-28797676D02*
X46035713Y-28892914D01*
X46035713Y-28892914D02*
X46130951Y-28940533D01*
X45816666Y-45264819D02*
X46292856Y-45264819D01*
X46292856Y-45264819D02*
X46292856Y-44264819D01*
X45578570Y-44264819D02*
X44959523Y-44264819D01*
X44959523Y-44264819D02*
X45292856Y-44645771D01*
X45292856Y-44645771D02*
X45149999Y-44645771D01*
X45149999Y-44645771D02*
X45054761Y-44693390D01*
X45054761Y-44693390D02*
X45007142Y-44741009D01*
X45007142Y-44741009D02*
X44959523Y-44836247D01*
X44959523Y-44836247D02*
X44959523Y-45074342D01*
X44959523Y-45074342D02*
X45007142Y-45169580D01*
X45007142Y-45169580D02*
X45054761Y-45217200D01*
X45054761Y-45217200D02*
X45149999Y-45264819D01*
X45149999Y-45264819D02*
X45435713Y-45264819D01*
X45435713Y-45264819D02*
X45530951Y-45217200D01*
X45530951Y-45217200D02*
X45578570Y-45169580D01*
D11*
%TO.C,L1*%
X43150000Y-22900000D02*
X49350000Y-22900000D01*
X43150000Y-23800000D02*
X43150000Y-22900000D01*
X43150000Y-27400000D02*
X43150000Y-28300000D01*
X43150000Y-28300000D02*
X49350000Y-28300000D01*
X49350000Y-22900000D02*
X49350000Y-23800000D01*
X49350000Y-27400000D02*
X49350000Y-28300000D01*
%TO.C,L3*%
X42550000Y-38510000D02*
X48750000Y-38510000D01*
X42550000Y-39410000D02*
X42550000Y-38510000D01*
X42550000Y-43010000D02*
X42550000Y-43910000D01*
X42550000Y-43910000D02*
X48750000Y-43910000D01*
X48750000Y-38510000D02*
X48750000Y-39410000D01*
X48750000Y-43010000D02*
X48750000Y-43910000D01*
%TD*%
M02*
